<svg width="203" height="298" viewBox="0 0 203 298" fill="none" xmlns="http://www.w3.org/2000/svg">
<path d="M83.5928 270.022C77.3429 275.267 70.5311 277.515 63.812 277.377C60.393 277.303 57.0477 276.609 53.7861 275.388C52.3875 274.859 51.0253 274.231 49.6788 273.531C42.487 269.704 36.1166 263.271 31.6863 255.216C22.6302 238.819 17.3243 224.672 17.3243 224.672L44.1314 206.248C44.1314 206.248 45.7697 205.74 47.0837 207.22C50.0311 210.521 51.5386 213.344 63.7239 220.037C63.7239 220.037 80.4918 216.116 92.1938 226.79C92.4309 227.023 92.6887 227.23 92.9258 227.463C93.4773 227.991 94.0082 228.544 94.4925 229.103C96.5896 231.509 98.0717 234.1 98.9544 236.803C102.198 246.917 96.9566 258.826 83.5928 270.022Z" fill="#945339"/>
<path d="M47.6632 269.492C34.7386 263.139 18.2137 226.998 18.2137 226.998L18.0125 226.878C19.9137 231.587 24.6011 242.65 31.4292 255.008C35.8852 263.084 42.2299 269.497 49.4217 273.323C50.3194 273.79 51.2378 274.231 52.1511 274.625L47.6632 269.492Z" fill="#B6724D"/>
<path d="M61.7296 219.877C56.9081 221.179 48.5573 218.373 48.5573 218.373C48.8224 217.568 49.046 216.814 49.2697 216.061L45.9541 218.445C45.9541 218.445 43.412 221.451 40.0905 224.212C41.8617 226.866 44.5242 230.574 47.6107 234.072C47.6107 234.072 58.4673 221.456 76.7193 221.654C81.6877 221.701 86.4717 223.508 90.4323 226.393C81.4094 218.932 70.7317 217.438 61.7296 219.877Z" fill="#AD6946"/>
<path d="M101.035 209.924C92.9875 210.331 84.3831 207.787 76.8958 204.487C75.5387 203.906 74.2487 203.294 72.9795 202.656L72.9537 202.635C69.0015 200.69 65.5092 198.648 62.729 196.881C59.5465 194.876 57.298 193.239 56.4523 192.602C56.1945 192.395 56.0656 192.291 56.0656 192.291L62.7629 173.025C62.7629 173.025 83.6853 183.046 107.534 169.414C114.509 165.431 120.811 164.979 125.905 166.612C129.245 167.682 132.045 169.635 134.214 172.057C135.178 173.128 135.987 174.287 136.707 175.502C139.496 180.373 140.058 186.169 137.75 190.678C133.399 199.103 122.089 208.852 101.035 209.924Z" fill="#945339"/>
<path d="M101.035 209.923C92.9877 210.33 84.3832 207.786 76.896 204.486C75.5388 203.905 74.2231 203.272 72.9539 202.634C69.0017 200.689 65.5094 198.647 62.7292 196.88C65.6321 196.752 73.2407 198.792 90.4591 189.294C104.084 181.786 116.522 163.611 130.284 169.662C131.569 170.228 132.879 171.026 134.215 172.056C135.178 173.127 135.987 174.286 136.707 175.501C139.497 180.372 140.058 186.168 137.75 190.677C133.399 199.103 122.089 208.851 101.035 209.923Z" fill="#AD6946"/>
<path d="M101.036 209.924C92.988 210.331 84.3836 207.787 76.8963 204.487C75.5392 203.906 74.2235 203.273 72.9543 202.635C72.9543 202.635 79.7474 201.941 91.4785 196.052C109.988 186.742 114.038 175.997 125.695 173.527C129.028 172.811 131.826 173.235 134.164 174.18C135.078 174.574 135.924 174.999 136.661 175.507C139.45 180.378 140.012 186.174 137.704 190.683C133.4 199.103 122.09 208.852 101.036 209.924Z" fill="#B6724D"/>
<path d="M101.035 209.924C92.9873 210.33 84.3828 207.787 76.8956 204.487C83.2899 206.824 91.4514 208.757 100.098 208.238C117.645 207.148 125.228 201.829 133.19 192.657C138.119 186.945 137.077 178.896 134.143 174.205C133.113 172.53 131.748 171.009 130.263 169.688C128.912 168.518 127.411 167.482 125.884 166.637C129.224 167.708 132.024 169.661 134.194 172.083C135.157 173.154 135.966 174.312 136.686 175.528C139.475 180.399 140.037 186.195 137.729 190.704C133.399 199.103 122.089 208.852 101.035 209.924Z" fill="#D59A77"/>
<path d="M115.1 179.481C115.255 179.394 115.415 179.353 115.57 179.265C123.96 175.951 130.983 178.879 131.268 185.81C131.465 190.423 128.645 195.623 124.277 199.581C123.957 199.874 123.636 200.168 123.31 200.415C121.303 202.069 119.053 203.443 116.618 204.415C108.229 207.729 101.206 204.801 100.921 197.869C100.857 195.994 101.275 193.996 102.074 192.051C104.244 186.922 109.207 181.958 115.1 179.481Z" fill="#AD6946"/>
<path d="M133.096 185.116C133.293 189.728 130.472 194.929 126.105 198.886C125.784 199.18 125.463 199.474 125.137 199.721C123.56 200.787 121.895 201.697 120.112 202.386C111.206 205.921 103.718 202.832 103.428 195.43C103.354 194.098 103.558 192.735 103.948 191.351C106.118 186.222 111.034 181.264 116.948 178.761C117.103 178.673 117.263 178.632 117.419 178.545C125.761 175.236 132.785 178.163 133.096 185.116Z" fill="#ECD09C"/>
<path d="M116.904 178.766C110.99 181.269 106.073 186.228 103.904 191.357C103.084 193.328 102.64 195.305 102.75 197.175C103.035 204.107 110.059 207.034 118.448 203.72C120.883 202.749 123.132 201.375 125.139 199.721C125.486 199.448 125.807 199.155 126.107 198.887C121.299 201.387 112.082 204.885 108.612 197.218C105.471 190.41 111.576 182.546 116.904 178.766Z" fill="#DCBD8A"/>
<path d="M119.53 202.639C121.5 201.93 123.366 200.927 125.119 199.748C123.112 201.401 120.863 202.776 118.428 203.747C110.039 207.061 103.015 204.133 102.73 197.201C102.656 195.445 103.121 193.231 103.775 191.677C103.795 191.652 103.842 191.646 103.821 191.672C103.405 193.247 103.272 194.837 103.434 196.325C104.247 202.917 111.276 205.679 119.53 202.639Z" fill="#C59F6D"/>
<path d="M90.031 196.163L73.7848 200.121L73.0048 202.676L72.979 202.656C69.0268 200.711 65.5344 198.669 62.7543 196.902C59.5718 194.896 57.3233 193.26 56.4776 192.623C58.2602 189.77 59.9857 187.041 59.9857 187.041C75.0694 203.275 99.6112 183.921 99.6112 183.921L90.031 196.163Z" fill="#AD6946"/>
<path d="M95.3966 231.356C95.3966 231.356 91.7777 225.564 85.0169 223.102C78.2561 220.64 73.9842 220.941 69.6337 221.815C51.2496 225.583 26.1783 256.262 48.7808 273.063L95.3966 231.356Z" fill="#AD6946"/>
<path d="M99.0631 236.931C98.1512 233.314 95.5002 229.063 92.0717 226.097C82.3637 217.746 73.3069 216.663 65.9986 216.731C60.498 216.766 54.7074 212.199 50.5558 209.287C50.3291 211.523 49.219 213.855 45.8885 218.476C45.8885 218.476 52.9648 223.186 61.4504 220.755C71.1039 218.033 81.3851 218.911 90.3667 226.424C94.121 229.143 97.2895 232.961 99.0631 236.931Z" fill="#945339"/>
<path d="M42.0838 220.044C34.3811 225.988 25.5295 228.082 20.3295 227.637C9.38717 226.737 -3.69747 217.837 -3.69747 217.837L-34.1133 200.57L-39.9249 211.13C-43.5674 204.259 -45.8128 196.176 -46.8484 184.951C-47.884 173.726 -38.2601 165.337 -25.0825 156.75C-12.872 148.785 17.3864 139.794 17.3864 139.794C17.3864 139.794 19.8738 140.816 23.6869 142.565C37.0512 148.635 66.8729 163.473 65.6984 174.493C64.161 188.656 58.0429 200.073 49.62 212.142C47.4236 215.298 44.8152 217.911 42.0838 220.044Z" fill="#AD6946"/>
<path d="M42.0842 220.044C32.2924 224.734 21.219 224.788 9.71134 215.034C9.53087 214.889 9.32462 214.723 9.16487 214.553C7.49967 213.088 6.02044 211.602 4.72719 210.097C-17.676 184.335 11.6309 153.453 23.7338 142.56C25.9836 143.561 28.6873 144.843 31.6695 146.305C32.5414 146.751 33.4599 147.192 34.3833 147.68L34.4349 147.721C48.7057 154.986 66.6927 165.916 65.7246 174.513C64.1872 188.677 58.0691 200.094 49.6462 212.162C47.424 215.298 44.8156 217.911 42.0842 220.044Z" fill="#AD6946"/>
<path d="M4.70018 210.076C-17.703 184.314 11.6038 153.432 23.7068 142.539C25.9566 143.54 28.6603 144.822 31.6425 146.284C33.5004 159.443 32.7694 185.751 4.70018 210.076Z" fill="#945339"/>
<path d="M61.4213 191.802C52.2221 184.666 51.3359 171.142 51.3359 171.142L49.5828 169.734C44.5595 173.716 37.0179 174.232 32.6188 173.583C32.4737 181.314 32.1257 189.773 28.6035 197.167C22.747 209.473 15.6849 212.878 9.70485 214.988C21.1918 224.768 32.2652 224.713 42.0777 219.998C44.8349 217.886 47.4176 215.252 49.6347 212.07C53.9133 206.005 58.6194 198.035 61.4213 191.802Z" fill="#B6724D"/>
<path d="M19.9421 147.277C15.0346 152.752 10.2758 158.728 -1.22541 165.863C-11.5372 172.256 -29.8763 179.242 -41.9135 180.813C-48.3609 181.657 -59.2308 178.185 -66.3856 171.461C-70.4475 167.646 -73.304 162.806 -73.4266 157.15C-73.4788 154.945 -73.2682 152.993 -72.8205 151.274C-71.9089 147.552 -69.9924 144.85 -67.6177 142.897C-63.1685 139.26 -56.9895 138.328 -52.445 138.585C-44.3269 139.041 -33.5675 138.479 -18.4796 137.705C-13.0766 137.422 -8.21129 137.385 -4.03832 137.471C-2.19973 137.506 -0.474843 137.577 1.11057 137.663C9.05834 138.067 13.5191 138.851 13.5191 138.851C13.5191 138.851 24.8497 141.802 19.9421 147.277Z" fill="#945339"/>
<path d="M31.7908 53.1175C19.9529 58.2423 22.6876 69.5175 24.4134 74.1281C24.8808 75.3944 25.2924 76.1493 25.2924 76.1493L38.9965 70.233L42.5068 68.5565L52.6604 63.7329C52.6397 63.7587 46.0892 47.0423 31.7908 53.1175ZM25.9395 40.4413C25.9137 40.4206 25.893 40.4464 25.9395 40.4413C25.7172 40.5596 25.5363 40.6264 25.3347 40.719C24.1507 41.295 23.034 41.8401 22.0204 42.4681C1.26372 54.6812 10.3182 76.8879 13.2806 82.9162C13.7641 83.8985 14.0831 84.4518 14.0831 84.4518L40.2177 74.0988L40.2228 74.1452L40.7139 73.9035L41.2773 73.6774L41.2465 73.6102L57.2382 65.3745L65.9708 60.894L66.2396 60.7706C66.2396 60.7706 55.1677 27.6105 25.9395 40.4413Z" fill="#B6724D"/>
<path d="M39.5787 69.9809L38.9738 70.2585L38.5706 70.4436L25.2698 76.1749C25.2698 76.1749 23.7163 73.1451 23.0737 69.1927C22.2786 64.0573 23.0931 57.2879 30.9824 53.4874C31.3857 53.3023 31.7889 53.1172 32.2179 52.9529C32.4868 52.8295 32.7607 52.7526 33.0088 52.6549C43.9814 48.8712 50.1073 58.6711 51.9743 62.4194C52.3961 63.2673 52.6171 63.7843 52.6171 63.7843L39.5787 69.9809Z" fill="#DCBD8A"/>
<path d="M41.2455 73.6111L41.2763 73.6783L40.7129 73.9044L40.2218 74.1461L40.2167 74.0996L14.0821 84.4526C14.0821 84.4526 -0.750336 59.0887 19.061 44.4616C19.9766 43.7973 20.9644 43.1486 22.0245 42.5155C17.7242 49.0297 10.8695 59.5155 18.0119 74.7561C18.0119 74.7561 21.5714 71.804 23.4591 70.5632C26.3761 68.6221 29.473 67.0378 32.6004 65.7324C36.8289 63.9541 41.1546 62.6357 45.3817 61.4927C50.2754 60.2065 52.5253 66.1713 57.2473 65.4683L41.2455 73.6111Z" fill="#945339"/>
<path d="M32.5924 65.639C23.6141 71.5341 16.0838 79.0591 16.0838 79.0591C8.2264 62.4381 13.3372 51.0603 19.0581 44.4147C19.9736 43.7504 20.9614 43.1017 22.0215 42.4686C17.7213 48.9828 10.8666 59.4686 18.0089 74.7092C18.0089 74.7092 21.5684 71.7571 23.4561 70.5163C26.3731 68.5752 29.4443 66.9702 32.5924 65.639Z" fill="#AD6946"/>
<path d="M45.193 60.1956C33.1976 61.5033 26.4068 66.1014 23.0742 69.1934C22.2792 64.058 23.0937 57.2886 30.983 53.4882C31.3862 53.3031 31.7895 53.118 32.2185 52.9536C32.4873 52.8302 32.7612 52.7533 33.0093 52.6557C40.6261 53.2602 45.193 60.1956 45.193 60.1956Z" fill="#ECD09C"/>
<path d="M66.2401 60.7709L65.9713 60.8943L64.1023 60.5806C64.1023 60.5806 61.4891 53.0087 55.8507 47.2487C50.2124 41.4886 40.6029 37.9257 31.911 40.1906C23.2192 42.4554 12.0881 50.3965 10.6102 60.7902C9.27346 70.3216 12.6443 81.1746 13.2295 82.875C10.2722 76.8933 1.21773 54.6866 21.9951 42.4477C23.0345 41.8404 24.1462 41.2488 25.3094 40.6986C25.511 40.606 25.6919 40.5392 25.8935 40.4467L25.9142 40.4209C55.1682 27.6108 66.2401 60.7709 66.2401 60.7709Z" fill="#D59A77"/>
<path d="M52.023 62.4151L50.2499 63.1965C44.3468 53.0665 37.3095 51.9519 32.2459 52.9743C43.6954 48.3859 50.0993 58.5789 52.023 62.4151Z" fill="#C59F6D"/>
<path d="M118.103 89.2017L121.96 99.7665L123.275 103.41L128.876 117.243C128.876 117.243 129.692 116.966 130.902 116.41C135.379 114.323 145.225 108.192 140.395 96.2513C134.501 81.8861 118.103 89.2017 118.103 89.2017ZM110.525 77.5136L110.602 77.7875L113.666 87.1215L119.291 104.198L119.224 104.228L119.471 104.766L119.645 105.288L119.692 105.283L131.058 131.001C131.058 131.001 131.673 130.817 132.717 130.468C139.038 128.249 161.085 118.813 154.853 95.5219C154.54 94.3799 154.15 93.1757 153.709 91.93C153.616 91.7284 153.549 91.5475 153.477 91.3201L153.452 91.2994C141.66 61.6756 110.525 77.5136 110.525 77.5136Z" fill="#B6724D"/>
<path d="M123.068 102.821L123.299 103.431L123.437 103.839L128.874 117.243C128.874 117.243 132.099 116.185 135.322 113.811C139.522 110.695 143.665 105.327 140.717 97.0624C140.553 96.6334 140.389 96.2044 140.229 95.8218C140.106 95.553 140.008 95.3049 139.864 95.0619C134.685 84.6648 123.451 87.3479 119.482 88.698C118.598 89.0061 118.081 89.2271 118.081 89.2271L123.068 102.821Z" fill="#DCBD8A"/>
<path d="M119.316 104.218L119.249 104.249L119.496 104.787L119.67 105.309L119.717 105.304L131.083 131.022C131.083 131.022 159.417 123.369 155.61 99.0148C155.442 97.904 155.196 96.7311 154.878 95.5426C153.36 103.188 150.891 115.501 135.106 121.315C135.106 121.315 134.63 116.733 134.175 114.501C133.449 111.075 132.36 107.783 131.076 104.63C129.323 100.422 127.167 96.3994 124.949 92.6659C122.381 88.3118 116.581 90.9907 113.717 87.1628L119.316 104.218Z" fill="#945339"/>
<path d="M131.075 104.63C133.346 115.109 133.427 125.78 133.427 125.78C150.711 119.473 155.033 107.758 155.629 98.9894C155.461 97.8786 155.216 96.7057 154.898 95.5171C153.379 103.163 150.911 115.476 135.126 121.29C135.126 121.29 134.65 116.708 134.194 114.476C133.468 111.05 132.38 107.758 131.075 104.63Z" fill="#AD6946"/>
<path d="M125.92 91.8774C133.55 101.231 135.181 109.286 135.368 113.806C139.568 110.69 143.711 105.322 140.763 97.0574C140.599 96.6284 140.435 96.1994 140.275 95.8168C140.152 95.548 140.054 95.2999 139.91 95.0569C134.058 90.1434 125.92 91.8774 125.92 91.8774Z" fill="#ECD09C"/>
<path d="M110.525 77.5136L110.602 77.7875L112.154 78.865C112.154 78.865 119.32 75.3316 127.372 75.183C135.45 75.0551 144.8 79.2579 149.401 86.9423C154.028 94.6474 156.371 108.153 150.089 116.553C144.345 124.284 134.32 129.634 132.717 130.468C139.038 128.249 161.085 118.813 154.853 95.5219C154.54 94.3799 154.15 93.1757 153.709 91.93C153.616 91.7284 153.549 91.5475 153.477 91.3201L153.452 91.2994C141.66 61.6756 110.525 77.5136 110.525 77.5136Z" fill="#D59A77"/>
<path d="M119.504 88.6726L120.219 90.4766C131.525 87.3856 137.322 91.5759 140.231 95.8222C135.281 84.5063 123.541 87.2916 119.504 88.6726Z" fill="#C59F6D"/>
<path d="M122.627 160.924C122.606 160.95 122.606 160.95 122.586 160.976C122.441 161.156 122.296 161.337 122.151 161.517C122.109 161.569 122.068 161.62 122.026 161.672C121.902 161.827 121.757 162.007 121.607 162.141C121.441 162.347 121.25 162.533 121.059 162.718C120.634 163.141 120.256 163.559 119.827 163.935C119.677 164.069 119.506 164.228 119.356 164.362C117.819 165.8 116.19 167.036 114.452 168.143C114.364 168.2 114.276 168.256 114.188 168.313C114.167 168.339 114.1 168.37 114.079 168.396C113.971 168.478 113.816 168.565 113.681 168.627C113.459 168.745 113.242 168.91 113.019 169.029C112.378 169.404 111.732 169.734 111.065 170.089C110.93 170.15 110.775 170.238 110.641 170.299C110.439 170.392 110.238 170.484 110.036 170.577C109.902 170.639 109.747 170.726 109.586 170.767C109.25 170.921 108.894 171.101 108.532 171.235C108.377 171.322 108.216 171.363 108.082 171.425C108.061 171.451 108.036 171.43 108.015 171.456C107.813 171.549 107.565 171.646 107.338 171.718C107.317 171.744 107.291 171.723 107.271 171.749C107.022 171.846 106.795 171.918 106.593 172.011C106.325 172.134 106.051 172.211 105.756 172.314C105.575 172.381 105.348 172.452 105.167 172.519C104.123 172.868 103.027 173.176 101.952 173.458C101.746 173.504 101.518 173.576 101.312 173.622C101.084 173.694 100.852 173.719 100.624 173.791C100.511 173.827 100.371 173.842 100.257 173.878C100.03 173.95 99.7976 173.975 99.5702 174.047C99.1776 174.113 98.79 174.226 98.3973 174.292C97.9582 174.364 97.5448 174.456 97.1056 174.527C96.899 174.573 96.6665 174.599 96.4805 174.619C96.2273 174.67 95.9484 174.7 95.7159 174.726C95.5092 174.772 95.2975 174.771 95.0908 174.817C94.8841 174.863 94.6723 174.863 94.4656 174.909C94.3727 174.919 94.2797 174.929 94.1867 174.94C93.9335 174.991 93.6753 174.995 93.3963 175.026C92.0945 175.168 90.8134 175.284 89.5014 175.333C89.5014 175.333 69.7621 175.085 49.6527 166.48C30.2141 158.202 21.3602 151.429 12.4159 143.394C11.5034 142.576 10.643 141.588 9.84968 140.569C8.18073 138.422 6.85795 136.214 6.43068 135.532C6.4049 135.511 6.39983 135.464 6.37405 135.444C6.28657 135.288 6.1733 135.113 6.08582 134.957C5.99834 134.802 5.88508 134.627 5.7976 134.471C5.50938 133.985 5.22116 133.499 4.97942 133.008C4.89194 132.853 4.80446 132.698 4.71698 132.543L4.6912 132.522C4.60373 132.367 4.51624 132.212 4.44948 132.031C3.16856 129.559 2.10996 126.97 1.36669 124.251C1.29992 124.071 1.27965 123.885 1.21288 123.704C0.97203 122.789 0.7726 121.823 0.573171 120.857C0.527117 120.65 0.486125 120.49 0.486562 120.278C0.46629 120.092 0.420236 119.885 0.39996 119.699C0.379687 119.513 0.359414 119.327 0.31336 119.121C0.241958 118.682 0.196342 118.263 0.171435 117.819C0.156229 117.679 0.161733 117.514 0.120746 117.354C0.100474 117.168 0.100909 116.956 0.0806324 116.77C0.0603595 116.584 0.0608023 116.372 0.0612388 116.161C0.0409667 115.975 0.041397 115.763 0.0211249 115.577C0.0164945 115.319 0.0169381 115.107 0.012303 114.849C0.0228787 114.73 0.00767193 114.591 0.0182469 114.472C0.0136173 114.213 0.0347632 113.976 0.00941876 113.743C0.0199945 113.625 0.00479472 113.485 0.0153697 113.366C0.0208738 113.201 0.031444 113.082 0.0369521 112.917C0.0424562 112.752 0.0686833 112.561 0.0691206 112.349C0.096217 111.735 0.1698 111.115 0.23832 110.449C0.264538 110.258 0.270046 110.093 0.296264 109.901C0.343197 109.685 0.364348 109.447 0.390566 109.256C0.416788 109.065 0.443007 108.874 0.495006 108.704C0.521224 108.513 0.552509 108.368 0.578731 108.177C0.625663 107.96 0.651881 107.769 0.698813 107.552C0.745745 107.336 0.771958 107.144 0.81889 106.928C1.49157 103.82 2.64484 100.589 4.23726 97.2869C4.87515 96.0177 5.49233 94.7742 6.16107 93.5722C6.3737 93.1492 6.63283 92.721 6.87124 92.3187C7.1253 91.844 7.40514 91.3901 7.68497 90.9362C7.86631 90.6577 8.02188 90.3584 8.20322 90.0799C8.8821 88.9709 9.58676 87.8826 10.2914 86.7942C10.737 86.1341 11.2032 85.4481 11.6745 84.8087L11.6952 84.7829C13.0213 82.9211 14.409 81.1938 15.7862 79.5852C29.5058 63.6699 46.6431 58.3908 62.8696 58.9976C71.6179 59.4082 80.0994 61.471 87.7215 64.4979C88.3614 64.7574 90.601 65.6659 91.0913 65.8477C112.307 74.0261 133.671 92.6325 133.649 123.497C133.638 125.992 133.494 128.548 133.22 131.212C133.14 131.997 133.036 132.762 132.936 133.572C132.889 133.789 132.868 134.027 132.821 134.243C132.329 137.496 131.614 140.867 130.677 144.357C130.422 145.255 130.167 146.153 129.892 147.077C129.803 147.345 129.715 147.614 129.647 147.856C129.58 148.099 129.486 148.321 129.439 148.538C129.419 148.563 129.424 148.61 129.403 148.636C129.403 148.636 129.382 148.662 129.408 148.682C129.34 148.925 129.247 149.147 129.133 149.394C129.117 149.467 129.081 149.565 129.039 149.616C128.946 149.838 128.878 150.081 128.785 150.303C128.743 150.354 128.728 150.427 128.712 150.499C128.624 150.767 128.51 151.015 128.401 151.309C128.266 151.583 128.177 151.851 128.043 152.124L128.001 152.176C127.866 152.449 127.778 152.718 127.643 152.991C127.55 153.213 127.456 153.435 127.316 153.662C127.28 153.76 127.223 153.884 127.161 153.961C127.067 154.183 126.948 154.384 126.85 154.56C126.85 154.56 126.829 154.585 126.808 154.611C126.673 154.885 126.533 155.112 126.419 155.359C126.279 155.586 126.165 155.834 126.025 156.061C125.984 156.112 125.963 156.138 125.948 156.211C125.808 156.437 125.688 156.639 125.548 156.866C125.409 157.093 125.289 157.294 125.149 157.521C125.087 157.598 125.051 157.696 124.989 157.773C124.89 157.949 124.745 158.129 124.647 158.305C124.626 158.331 124.626 158.331 124.605 158.356C124.465 158.583 124.3 158.79 124.16 159.016C123.994 159.223 123.834 159.475 123.668 159.682C123.502 159.888 123.316 160.12 123.15 160.326C122.979 160.486 122.793 160.718 122.627 160.924Z" fill="#B6724D"/>
<path d="M114.169 168.339C114.148 168.365 114.081 168.396 114.06 168.421C113.926 168.483 113.797 168.591 113.662 168.653C113.44 168.771 113.223 168.936 113 169.054C112.38 169.404 93.6562 187.535 55.1112 170.143C53.2537 169.287 51.3445 168.39 49.3995 167.379C30.6508 157.661 22.6399 152.795 13.6749 144.786C11.6953 143.026 10.5982 141.593 9.78417 140.6C8.11522 138.453 6.79243 136.245 6.36516 135.562C6.33938 135.542 6.33431 135.495 6.30853 135.474C6.22106 135.319 6.10779 135.143 6.02031 134.988C5.93284 134.833 5.81957 134.657 5.73209 134.502C5.44387 134.016 5.15565 133.53 4.91392 133.039C4.82644 132.884 4.73896 132.729 4.65148 132.574L4.6257 132.553C4.53821 132.398 4.45073 132.243 4.38396 132.062C3.10304 129.59 2.04445 127 1.30117 124.282C1.23441 124.101 1.21413 123.915 1.14737 123.734C0.880733 122.799 0.707084 121.854 0.507655 120.887C0.461601 120.681 0.420613 120.52 0.42105 120.309C0.400778 120.123 0.35472 119.916 0.334444 119.73C0.314171 119.544 0.293898 119.358 0.247839 119.151C0.176442 118.712 0.130819 118.294 0.105916 117.85C0.090711 117.71 0.0962143 117.545 0.0552281 117.385C0.0349552 117.199 0.035398 116.987 0.0151203 116.801C-0.00515178 116.615 -0.00471451 116.403 -0.00427725 116.192C-0.0245501 116.006 -0.0241199 115.794 -0.044392 115.608C-0.0490223 115.35 -0.048581 115.138 -0.0532153 114.88C-0.0426404 114.761 -0.0578449 114.621 -0.0472692 114.503C-0.0518995 114.244 -0.0307488 114.007 -0.0560933 113.774C-0.0455176 113.656 -0.0349419 113.537 -0.0243661 113.418C-0.018862 113.253 -0.00828303 113.134 -0.00277893 112.969C0.00272995 112.803 0.0289475 112.612 0.0293847 112.401C0.056476 111.786 0.130064 111.166 0.198584 110.5C0.224802 110.309 0.230315 110.144 0.256533 109.953C0.303465 109.736 0.324611 109.499 0.350829 109.308C0.377047 109.117 0.403271 108.926 0.45527 108.755C0.481488 108.564 0.512773 108.42 0.538995 108.229C0.585922 108.012 0.612145 107.821 0.659077 107.604C0.706009 107.387 0.732232 107.196 0.779159 106.979C1.47256 103.846 2.60511 100.641 4.19752 97.3384C4.83542 96.0692 5.45259 94.8258 6.12134 93.6238C6.33397 93.2007 6.5931 92.7725 6.83151 92.3702C7.08556 91.8955 7.3654 91.4416 7.64523 90.9877C7.82658 90.7092 7.98214 90.4099 8.16348 90.1314C8.84236 89.0224 9.54703 87.9341 10.2517 86.8458C10.6972 86.1856 11.1635 85.4996 11.6348 84.8602L11.6555 84.8344C12.9815 82.9727 14.3693 81.2453 15.7464 79.6368C25.8316 67.9284 37.7694 61.9929 49.7973 59.9054C54.1373 59.15 58.5073 58.8853 62.8091 59.0749C50.2683 64.441 22.4591 80.3634 20.8711 116.503C19.7217 142.857 63.5622 184.441 114.169 168.339Z" fill="#AD6946"/>
<path d="M55.1109 170.143C53.2534 169.287 51.3443 168.389 49.3992 167.378C30.6505 157.661 22.6397 152.794 13.6747 144.786C11.695 143.026 10.5979 141.593 9.78391 140.6C8.11496 138.453 6.79218 136.245 6.36491 135.562C6.33913 135.541 6.33406 135.495 6.30828 135.474C6.2208 135.319 6.10754 135.143 6.02006 134.988C5.93258 134.833 5.81932 134.657 5.73184 134.502C5.44361 134.016 5.15539 133.53 4.91366 133.039C4.82618 132.883 4.7387 132.728 4.65122 132.573L4.62544 132.552C4.53796 132.397 4.45047 132.242 4.38371 132.061C3.10279 129.59 2.04419 127 1.30092 124.282C1.23415 124.101 1.21388 123.915 1.14711 123.734C0.880479 122.799 0.706831 121.853 0.507401 120.887C0.461343 120.68 0.42036 120.52 0.420797 120.308C0.400525 120.122 0.354463 119.916 0.33419 119.73C0.313918 119.544 0.293644 119.358 0.247586 119.151C0.176188 118.712 0.130566 118.294 0.105663 117.849C0.0904581 117.71 0.0959615 117.545 0.0549752 117.384C0.0347024 117.198 0.0351452 116.987 0.0148675 116.801C-0.00540461 116.615 -0.00496734 116.403 -0.00453008 116.191C-0.0248077 116.005 -0.0243719 115.793 -0.0446448 115.607C-0.0492751 115.349 -0.0488386 115.137 -0.0534682 114.879C-0.0428932 114.76 -0.0580977 114.621 -0.047522 114.502C-0.0521571 114.244 -0.0310016 114.006 -0.0563454 113.774C-0.0457704 113.655 -0.0351939 113.536 -0.024619 113.418C-0.0191149 113.252 -0.0085399 113.134 -0.00303176 112.968C0.00247234 112.803 0.0286899 112.612 0.0291319 112.4C0.0562236 111.786 0.129812 111.166 0.198332 110.5C0.224549 110.309 0.230062 110.144 0.25628 109.953C0.303213 109.736 0.324359 109.498 0.350577 109.307C0.376795 109.116 0.403014 108.925 0.455018 108.755C0.481236 108.564 0.51252 108.419 0.538738 108.228C0.58567 108.011 0.611892 107.82 0.658824 107.604C0.705757 107.387 0.731974 107.196 0.778906 106.979C1.4723 103.845 2.60485 100.64 4.19727 97.3381C4.83516 96.0689 5.45234 94.8254 6.12108 93.6234C6.33371 93.2003 6.59284 92.7722 6.83125 92.3698C7.08531 91.8952 7.36514 91.4413 7.64498 90.9874C7.82633 90.7088 7.98189 90.4096 8.16323 90.1311C8.84211 89.022 9.54677 87.9337 10.2514 86.8454C10.697 86.1852 11.1632 85.4993 11.6345 84.8598L11.6553 84.8341C12.9813 82.9723 14.369 81.245 15.7462 79.6364C25.8314 67.928 37.7691 61.9926 49.7971 59.905L38.3701 63.6207C38.3701 63.6207 11.8914 80.5271 8.53326 111.003C6.18926 133.088 32.1033 156.961 55.1109 170.143Z" fill="#945339"/>
<path d="M91.785 65.5133C63.3478 53.0177 36.9048 55.1477 15.7715 79.6574C23.9996 71.8446 42.3463 53.7076 73.2667 61.7925C119.389 73.8185 134.853 100.878 129.356 132.01C126.037 150.767 119.257 165.173 107.344 171.764C79.2823 187.314 53.1317 167.959 42.6867 163.853C44.6681 164.766 49.6566 167.586 51.8286 168.737C70.4433 178.304 86.2988 178.528 86.2988 178.528C119.591 178.592 131.909 151.115 133.647 129.731C135.687 104.645 125.656 80.3804 91.785 65.5133Z" fill="#D59A77"/>
<path d="M8.93308 139.492C8.10896 138.406 6.83774 136.239 6.35385 135.469C6.26637 135.314 6.1531 135.138 6.06562 134.983C5.97814 134.828 5.86488 134.652 5.7774 134.497C5.48918 134.011 5.20096 133.525 4.95922 133.033C4.87174 132.878 4.78426 132.723 4.69678 132.568L4.671 132.547C4.58352 132.392 4.49604 132.237 4.42927 132.056C3.14835 129.585 2.08976 126.995 1.32577 124.303C1.259 124.122 1.23873 123.936 1.17196 123.755C0.905328 122.819 0.731681 121.874 0.532251 120.908C0.511977 120.722 0.465922 120.515 0.445647 120.329C0.425372 120.143 0.379315 119.936 0.35904 119.75C0.338765 119.564 0.292711 119.358 0.272438 119.172C0.226819 118.753 0.155421 118.314 0.130513 117.87C0.115307 117.73 0.120814 117.565 0.0798267 117.405C0.0595522 117.219 0.059992 117.007 0.0397175 116.821C0.0401564 116.61 0.0198815 116.424 0.0203192 116.212C4.46918e-05 116.026 0.000479276 115.814 -0.019796 115.628C-0.0345647 115.277 -0.0286174 114.9 -0.0226732 114.523C-0.0273047 114.265 -0.00615162 114.027 -0.0314954 113.795C-0.0209204 113.676 -0.0103451 113.557 0.00022866 113.438C0.00573634 113.273 0.0163128 113.154 0.0218205 112.989C0.0480388 112.798 0.0277635 112.612 0.053983 112.421C0.10179 111.781 0.154662 111.187 0.22318 110.521C0.249399 110.33 0.254911 110.164 0.28113 109.973C0.328061 109.756 0.328496 109.545 0.375427 109.328C0.401646 109.137 0.427866 108.946 0.479865 108.775C0.506085 108.584 0.53737 108.44 0.563589 108.249C0.610521 108.032 0.636742 107.841 0.683673 107.624C0.730604 107.407 0.756827 107.216 0.803759 106.999C1.49716 103.866 2.6297 100.661 4.22212 97.3587C4.86001 96.0895 5.47719 94.846 6.14593 93.644C6.35856 93.221 6.61769 92.7928 6.8561 92.3905C7.11016 91.9158 7.38999 91.4619 7.66983 91.008C7.85117 90.7295 8.00674 90.4302 8.18808 90.1517C9.30236 88.2895 10.4783 86.5617 11.6387 84.9062C10.6905 86.3504 9.34842 88.4962 7.93822 91.0963C7.16041 92.5925 6.33059 94.259 5.5367 96.0392C3.25858 101.251 1.37601 107.502 1.26988 113.864C1.11515 126.254 10.6227 141.613 18.5514 148.747C17.9944 148.384 13.5532 145.622 8.93308 139.492Z" fill="#AD6946"/>
<path d="M61.9937 108.562C58.4589 109.583 54.7806 107.561 53.7859 104.047C52.8833 100.946 54.362 97.6798 57.1487 96.2705C57.5055 96.0904 57.888 95.9311 58.2756 95.8183C61.8104 94.7978 65.4887 96.8197 66.5092 100.354C67.1963 102.773 66.4784 105.251 64.8223 106.89C64.0356 107.658 63.0893 108.255 61.9937 108.562Z" fill="#333132"/>
<path d="M63.6485 107.347C60.1137 108.367 56.4354 106.345 55.4149 102.81C54.7278 100.392 55.4457 97.9142 57.1018 96.2752C57.4586 96.0952 57.8411 95.9359 58.2287 95.8231C61.7635 94.8026 65.4418 96.8245 66.4623 100.359C67.1494 102.778 66.4315 105.255 64.7754 106.894C64.4444 107.095 64.0568 107.208 63.6485 107.347Z" fill="#272425"/>
<path d="M61.3384 102.776C62.4205 103.645 64.0025 103.473 64.8719 102.391C65.7413 101.309 65.5688 99.7267 64.4867 98.8574C63.4046 97.988 61.8226 98.1604 60.9532 99.2426C60.0838 100.325 60.2563 101.907 61.3384 102.776Z" fill="white"/>
<path d="M54.5292 109.14C54.4519 109.078 54.3695 108.969 54.3593 108.876C54.3082 108.623 54.4638 108.324 54.7427 108.293C59.1969 107.29 64.333 108.659 64.5498 108.706C64.8182 108.794 64.9623 109.037 64.8997 109.327C64.8114 109.595 64.5683 109.739 64.2792 109.677C64.2327 109.682 59.1224 108.333 54.9422 109.26C54.7769 109.254 54.6323 109.223 54.5292 109.14Z" fill="#43281F"/>
<path d="M99.3309 127.191C96.0287 125.599 94.6528 121.609 96.271 118.327C97.6922 115.397 100.975 114.004 104.005 114.826C104.392 114.925 104.784 115.071 105.156 115.242C108.458 116.834 109.834 120.824 108.216 124.106C107.121 126.366 104.892 127.714 102.552 127.828C101.478 127.898 100.373 127.689 99.3309 127.191Z" fill="#333132"/>
<path d="M101.595 127.438C98.2564 125.944 96.746 122.015 98.2611 118.651C99.2833 116.375 101.455 114.939 103.811 114.753C104.198 114.852 104.611 114.971 104.983 115.143C108.321 116.637 109.831 120.565 108.316 123.93C107.294 126.205 105.122 127.642 102.766 127.828C102.379 127.729 101.966 127.609 101.595 127.438Z" fill="#272425"/>
<path d="M103.561 123.25C104.643 124.119 106.225 123.947 107.095 122.864C107.964 121.782 107.791 120.2 106.709 119.331C105.627 118.462 104.045 118.634 103.176 119.716C102.306 120.798 102.479 122.38 103.561 123.25Z" fill="white"/>
<path d="M100.209 130.272C100.157 130.23 100.101 130.143 100.07 130.075C98.3011 126.152 94.1347 122.889 94.1089 122.868C93.9027 122.703 93.8672 122.377 94.0329 122.171C94.1986 121.965 94.4983 121.909 94.7303 122.095C94.9108 122.24 99.103 125.523 100.99 129.669C101.087 129.917 100.978 130.212 100.756 130.33C100.529 130.402 100.338 130.375 100.209 130.272Z" fill="#43281F"/>
<path d="M64.2771 152.547C76.9837 158.785 91.421 155.415 96.5237 145.02C101.626 134.625 95.4621 121.142 82.7555 114.904C70.0488 108.667 55.6115 112.037 50.5088 122.432C45.4062 132.827 51.5704 146.31 64.2771 152.547Z" fill="#AD6946"/>
<path d="M59.4841 158.873C72.2727 165.151 86.7765 161.813 91.8792 151.419C96.9818 141.024 90.7511 127.508 77.9625 121.23C65.1739 114.952 50.6701 118.29 45.5674 128.685C40.4648 139.08 46.6955 152.596 59.4841 158.873Z" fill="#945339"/>
<path d="M53.4603 130.64C52.3376 144.077 71.1417 164.444 92.1164 154.23C93.576 152.731 94.7984 150.998 95.7631 149.058C96.4788 147.639 96.9776 146.173 97.3577 144.697C98.8937 138.719 97.8324 132.437 94.7338 127.317C92.5822 123.764 89.407 120.747 85.429 118.781L78.0715 115.161C74.047 113.2 69.7409 112.541 65.603 112.992C64.1152 113.154 62.6219 113.481 61.1903 113.943C58.1795 116.318 54.2133 121.149 53.4603 130.64Z" fill="#ECD09C"/>
<path d="M53.46 130.639C54.2595 121.143 58.1792 116.317 61.1951 113.989C61.0814 114.024 60.9212 114.065 60.8075 114.101C55.9751 115.734 51.6971 118.999 48.878 123.564C48.4996 124.194 48.1471 124.844 47.7738 125.52C42.2864 136.68 45.1575 149.422 61.6886 157.57C68.6488 160.998 75.8007 161.654 81.8623 160.075C85.8206 159.056 89.342 157.049 92.0696 154.234C71.1157 164.423 52.3373 144.076 53.46 130.639Z" fill="#DCBD8A"/>
<path d="M73.5802 140.184C73.3739 140.018 73.3435 139.739 73.4627 139.538C77.6134 132.946 78.6408 128.129 78.6357 128.083C78.6776 127.82 78.9413 127.65 79.2304 127.712C79.4937 127.754 79.6636 128.018 79.6011 128.307C79.5541 128.524 78.5267 133.341 74.2983 140.082C74.1584 140.309 73.838 140.391 73.611 140.251C73.606 140.205 73.5802 140.184 73.5802 140.184Z" fill="#43281F"/>
<path d="M71.5953 113.137C69.37 112.791 67.397 112.818 65.5837 113.016C65.4247 115.009 65.6375 116.962 66.2173 118.828C67.4846 122.9 70.5605 126.517 75.8026 129.074C78.1141 130.21 80.3749 130.881 82.4971 131.143C71.5721 124.36 70.9209 117.092 71.5953 113.137Z" fill="#43281F"/>
<path d="M89.0681 130.568C91.1612 129.916 93.0383 128.794 94.7354 127.316C92.5839 123.763 89.6986 120.384 81.5465 116.38C77.7697 114.534 74.4869 113.551 71.5955 113.137C70.9211 117.092 71.5981 124.381 82.4766 131.169C84.8363 131.453 87.0473 131.235 89.0681 130.568Z" fill="#5C392B"/>
<path d="M76.3505 116.194C76.7118 116.273 77.0474 116.33 77.3881 116.434C77.7288 116.538 78.0694 116.642 78.3843 116.725C79.0449 116.959 79.7055 117.193 80.3247 117.478C81.5838 118.023 82.8323 118.687 84.0186 119.428C85.205 120.169 86.3343 121.034 87.4015 121.976C88.4479 122.944 89.3908 124.041 90.1629 125.298C90.5336 125.892 90.3357 126.667 89.741 127.037C89.3014 127.32 88.7541 127.262 88.3724 126.998L88.3208 126.957C87.274 126.201 86.2786 125.486 85.2368 124.776C84.195 124.066 83.1325 123.382 82.0441 122.678L78.7636 120.636L77.0975 119.594C76.819 119.413 76.5404 119.232 76.2619 119.05C75.9834 118.869 75.7049 118.688 75.4521 118.527L75.4006 118.486C74.8385 118.076 74.7058 117.291 75.115 116.729C75.3741 116.301 75.8703 116.106 76.3505 116.194Z" fill="white"/>
<path d="M71.1779 149.878C70.2168 150.124 69.2045 150.117 68.0587 149.748C66.0147 149.124 62.9899 145.761 64.0035 140.169C64.0504 139.952 64.0715 139.715 64.1185 139.498C64.9181 134.965 65.0522 132.528 65.0522 132.528C65.0522 132.528 72.0623 141.808 80.8234 141.041C80.8234 141.041 78.422 143.396 76.4184 145.732C74.5442 147.959 72.9608 149.402 71.1779 149.878Z" fill="#43281F"/>
<path d="M71.1797 149.879C70.2185 150.125 69.2062 150.117 68.0604 149.748C66.0164 149.124 62.9917 145.761 64.0052 140.17C64.0521 139.953 64.0733 139.715 64.1202 139.498C64.791 139.825 65.5441 140.261 66.2816 140.768C68.4735 142.317 70.6686 144.759 71.1049 148.546C71.1763 148.985 71.2012 149.429 71.1797 149.879Z" fill="#C45D69"/>
<path d="M71.1289 148.566C68.5015 150.358 64.1213 145.567 65.3266 142.166C65.5967 141.407 65.9746 140.989 66.3263 140.763C68.4974 142.337 70.6926 144.78 71.1289 148.566Z" fill="#D67679"/>
<path d="M69.2529 137.387C65.4115 134.301 63.271 130.417 63.1526 130.195C63.0085 129.952 63.1176 129.658 63.3606 129.514C63.6037 129.37 63.8978 129.479 64.0419 129.722C64.0728 129.789 67.7415 136.469 73.9802 139.106C79.2592 141.353 82.7374 140.245 82.7839 140.24C83.032 140.142 83.3312 140.298 83.4081 140.572C83.5057 140.82 83.3502 141.119 83.1021 141.217C82.9419 141.258 79.2621 142.459 73.5909 140.066C71.981 139.324 70.5161 138.402 69.2529 137.387Z" fill="#43281F"/>
<path d="M-53.5964 168.797C-64.6797 166.172 -71.848 158.461 -72.8196 151.275C-71.9081 147.553 -69.9915 144.851 -67.6169 142.898C-63.1676 139.261 -56.9886 138.329 -52.4441 138.586C-44.326 139.042 -33.5666 138.48 -18.4787 137.706C-13.0758 137.423 -8.21044 137.386 -4.03747 137.472C-2.19888 137.507 -0.473992 137.578 1.11142 137.664C1.11142 137.664 10.3423 139.48 4.68692 146.942C-1.25843 154.765 -30.7276 174.232 -53.5964 168.797Z" fill="#AD6946"/>
<path d="M-24.1392 160.011C-46.5318 169.085 -73.9216 154.547 -67.6171 142.898C-63.1679 139.26 -56.9889 138.328 -52.4444 138.585C-44.3263 139.041 -33.5669 138.48 -18.479 137.705C-13.076 137.422 -8.2107 137.386 -4.03774 137.472C-4.03774 137.472 0.515566 138.457 1.3333 140.132C3.96611 145.726 1.38587 149.677 -24.1392 160.011Z" fill="#B6724D"/>
<path d="M11.3657 218.993C6.75448 223.519 -1.20467 228.62 -13.4239 228.306C-13.9197 228.289 -14.4413 228.252 -14.937 228.236C-32.1554 225.22 -42.1928 213.847 -43.3697 198.521C-43.5002 196.677 -43.5427 194.776 -43.4044 192.808C-42.6558 180.471 -35.2026 170.297 -25.1268 165.623C-24.2324 165.196 -23.3072 164.836 -22.3769 164.523C-19.5445 163.532 -16.5271 162.944 -13.4281 162.889C-12.3021 162.86 -11.171 162.878 -10.0556 162.968C4.2849 163.969 17.5124 173.747 20.5144 188.122C21.476 192.627 21.5298 196.574 21.12 199.935C21.0934 200.338 21.0409 200.72 20.942 201.107C20.654 202.997 20.222 204.643 19.7438 206.083C19.6348 206.378 19.5308 206.718 19.4217 207.012C19.3126 207.306 19.2035 207.601 19.0894 207.848C18.9233 208.266 18.7521 208.638 18.5809 209.009C18.5031 209.159 18.446 209.283 18.3889 209.407C17.4036 211.372 16.5544 212.429 16.5129 212.481C16.4614 212.44 14.9159 215.525 11.3657 218.993Z" fill="#B6724D"/>
<path d="M10.9507 219.509C5.94133 224.266 -1.84068 228.619 -13.4246 228.306C-13.9204 228.29 -14.442 228.253 -14.9378 228.236C-32.1561 225.22 -42.1936 213.847 -43.3704 198.521C-43.5009 196.677 -43.5435 194.776 -43.4051 192.809C-42.6565 180.472 -35.2034 170.297 -25.1275 165.623C-27.4147 167.731 -29.5638 170.458 -31.3726 173.502C-36.0994 181.497 -38.4865 191.967 -35.1743 201.203C-33.2486 206.568 -29.3697 211.508 -22.8855 215.318C-22.4831 215.556 -22.1065 215.774 -21.6835 215.987C-14.889 219.621 -7.95811 219.76 -1.70001 218.042C6.84223 215.7 14.1674 209.961 18.263 205.022C19.4487 203.599 20.3347 202.232 20.9362 201.061C20.6482 202.95 20.2161 204.597 19.738 206.037C19.6547 206.352 19.5249 206.672 19.4159 206.966C19.3068 207.26 19.1977 207.554 19.0836 207.802C18.9175 208.22 18.7463 208.592 18.575 208.963C18.4973 209.113 18.4402 209.237 18.3831 209.36C17.2786 211.527 15.0026 215.68 10.9507 219.509Z" fill="#AD6946"/>
<path d="M-10.852 173.147C-19.5073 172.726 -27.2736 177.007 -31.7138 183.748C-32.0351 184.254 -32.3356 184.733 -32.6311 185.26C-33.5658 187.69 -34.1497 190.318 -34.2741 193.06C-34.9484 206.942 -24.2301 218.735 -10.3743 219.388C-7.8696 219.491 -5.42615 219.249 -3.11117 218.69C4.95268 215.412 10.8769 207.827 11.5931 198.645C11.6142 198.408 11.6354 198.17 11.6308 197.912C12.2518 184.836 2.17748 173.773 -10.852 173.147Z" fill="#ECD09C"/>
<path d="M-16.8946 208.336C-17.2352 208.232 -17.4981 207.979 -17.6059 207.638L-22.3272 193.027C-22.9019 191.208 -22.7222 189.189 -21.8509 187.471C-20.9746 185.799 -19.5311 184.583 -17.7534 184.06C-14.1306 182.983 -10.2406 185.005 -9.09624 188.597L-8.21855 191.254L-5.98598 190.587C-4.16679 190.012 -2.14266 190.238 -0.445302 191.135C1.20556 192.038 2.40075 193.507 2.92388 195.285C3.9545 198.912 1.88063 202.761 -1.73704 203.885L-16.2593 208.338C-16.5125 208.389 -16.7242 208.388 -16.8946 208.336ZM-16.6083 207.294L-17.1303 207.468L-16.6083 207.294ZM-14.0678 185.07C-15.1363 184.763 -16.2931 184.724 -17.4559 185.063C-18.9598 185.509 -20.1653 186.534 -20.9274 187.958C-21.6845 189.428 -21.8275 191.138 -21.3297 192.683L-16.6083 207.294L-2.08609 202.841C0.96309 201.897 2.74656 198.621 1.84903 195.566C1.42859 194.083 0.398213 192.831 -0.979197 192.064C-2.42888 191.281 -4.1432 191.092 -5.6885 191.589L-8.39657 192.426C-8.67046 192.503 -8.9697 192.347 -9.04661 192.073L-10.073 188.915C-10.7251 187.034 -12.2664 185.626 -14.0678 185.07Z" fill="#C59F6D"/>
<path d="M11.5678 198.624C10.8515 207.806 4.93241 215.437 -3.1365 218.669C-6.22247 219.923 -9.59116 220.526 -13.139 220.348C-26.1685 219.722 -36.2685 208.638 -35.6217 195.583C-35.4435 191.823 -34.393 188.298 -32.6615 185.192C-32.366 184.666 -32.0655 184.186 -31.7442 183.681C-33.1903 191.131 -33.6021 205.477 -17.0814 211.157C-2.41864 216.192 8.11612 206.881 11.5678 198.624Z" fill="#DCBD8A"/>
<path d="M-34.2739 193.059C-34.1494 190.317 -33.5655 187.689 -32.6309 185.259C-34.3416 188.339 -35.3922 191.864 -35.5911 195.649C-36.2172 208.679 -26.1636 219.768 -13.1084 220.415C-9.56053 220.592 -6.17112 219.964 -3.10586 218.736C-5.42084 219.294 -7.83851 219.558 -10.369 219.434C-24.2556 218.713 -34.9482 206.941 -34.2739 193.059Z" fill="#C59F6D"/>
<path d="M10.9512 219.509C11.0962 219.329 11.2411 219.148 11.3861 218.968C14.4621 215.033 16.848 210.163 18.2635 205.022C21.6567 192.561 17.1796 177.171 5.82651 170.129C-12.1601 158.987 -28.8315 168.755 -34.6969 175.37C-42.8038 184.51 -43.4422 198.505 -43.2926 198.583C-43.2926 198.583 -43.3184 198.562 -43.4164 198.526C-43.5469 196.682 -43.5895 194.781 -43.4511 192.814C-42.7025 180.477 -35.2802 170.235 -25.1735 165.628C-2.89752 155.484 17.4354 170.886 20.7166 187.606C21.6111 192.142 21.5038 196.553 21.1147 199.889C21.0881 200.291 21.0356 200.674 20.9367 201.061C20.6487 202.95 20.2166 204.597 19.7385 206.037C19.6552 206.352 19.5254 206.672 19.4164 206.966C19.3073 207.26 19.1982 207.554 19.0841 207.802C18.9179 208.22 18.7467 208.592 18.5755 208.963C18.4978 209.113 18.4407 209.237 18.3836 209.36C17.279 211.527 15.0031 215.68 10.9512 219.509Z" fill="#D59A77"/>
<path d="M1.06429 137.669C1.06429 137.669 -21.138 139.642 -34.0983 140.514C-52.0071 141.737 -62.6311 139.226 -68.3598 149.683C-73.6324 159.361 -70.2951 166.454 -66.3854 171.462C-70.4473 167.647 -73.3038 162.807 -73.4264 157.151C-73.4786 154.946 -73.268 152.994 -72.8203 151.275C-71.9087 147.553 -69.9922 144.851 -67.6175 142.898C-63.1683 139.261 -56.9893 138.328 -52.4448 138.586C-44.3267 139.042 -33.5673 138.48 -18.4793 137.706C-13.0764 137.422 -8.21107 137.386 -4.03811 137.472C-2.22023 137.533 -0.521124 137.583 1.06429 137.669Z" fill="#D59A77"/>
<path d="M83.5927 270.021C72.7743 279.104 60.3167 279.192 49.6786 273.53C43.2713 269.994 36.6463 259.284 49.0403 245.019C49.0403 245.019 42.7323 270.876 69.7318 269.32C92.3821 268.004 64.3289 234.648 64.3289 234.648C64.3289 234.648 74.222 225.925 86.032 226.801C89.5177 227.057 92.2688 227.909 94.4615 229.035C96.5586 231.441 98.0407 234.031 98.9234 236.734C102.198 246.916 96.9565 258.825 83.5927 270.021Z" fill="#B6724D"/>
<path d="M89.2829 235.692C85.1872 230.705 78.1094 229.218 70.9315 231.13C70.4045 231.258 69.8825 231.432 69.3605 231.607C67.1219 232.651 64.924 234.066 62.8494 235.751C52.4453 244.319 49.3703 257.756 55.9595 265.765C57.1496 267.188 58.5727 268.373 60.177 269.28C66.6593 271.561 75.2053 269.9 82.2253 264.383C82.4219 264.244 82.5926 264.085 82.7892 263.945C92.5829 255.821 95.4651 243.204 89.2829 235.692Z" fill="#ECD09C"/>
<path d="M82.2683 264.331C75.2483 269.848 66.7281 271.53 60.22 269.228C57.7479 268.345 55.5663 266.889 53.8867 264.861C47.6787 257.329 50.561 244.712 60.3598 236.634C63.1639 234.305 66.2714 232.602 69.4035 231.555C69.9255 231.38 70.4475 231.206 70.9746 231.078C64.8253 235.088 54.2137 244.125 58.5569 256.778C62.3711 268.029 74.5037 267.765 82.2683 264.331Z" fill="#DCBD8A"/>
<path d="M62.896 235.746C64.9447 234.041 67.1478 232.672 69.407 231.602C66.275 232.649 63.2139 234.347 60.3633 236.681C50.5852 244.733 47.6823 257.376 53.8902 264.909C55.5698 266.937 57.7515 268.393 60.2236 269.276C58.6192 268.369 57.2012 267.229 56.006 265.76C49.4168 257.751 52.4919 244.314 62.896 235.746Z" fill="#C59F6D"/>
<path d="M70.131 263.702C70.0021 263.599 69.8939 263.47 69.8272 263.289L67.6099 256.544L60.5427 254.939C60.3516 254.912 60.1712 254.767 60.0372 254.617C59.929 254.488 59.8673 254.354 59.8521 254.214C59.7908 253.868 59.9413 253.522 60.2 253.306L66.2525 248.624L66.1178 241.346C66.103 240.995 66.305 240.691 66.5895 240.495C66.8998 240.32 67.2768 240.326 67.5811 240.528L73.5332 244.419L80.5581 241.536C80.8941 241.382 81.2813 241.481 81.5391 241.688C81.802 241.942 81.889 242.308 81.785 242.649L79.4256 249.704L83.8818 255.193C84.0982 255.452 84.1438 255.871 83.9882 256.17C83.8327 256.469 83.5275 256.691 83.1763 256.705L75.7483 257.186L71.4692 263.462C71.2672 263.767 70.9311 263.921 70.5748 263.889C70.4354 263.904 70.2857 263.827 70.131 263.702ZM68.2778 255.765C68.3551 255.828 68.386 255.895 68.4426 255.983L70.7266 262.908L75.1249 256.43C75.2078 256.327 75.3371 256.219 75.5024 256.225L83.1886 255.74L78.5984 250.1C78.4902 249.971 78.4492 249.811 78.527 249.661L80.9384 242.436L73.7533 245.359C73.6189 245.421 73.4537 245.416 73.3248 245.312L67.1457 241.281L67.285 248.817C67.3002 248.956 67.2225 249.106 67.0931 249.214L60.8648 254.01L68.1024 255.667C68.1747 255.683 68.2262 255.724 68.2778 255.765Z" fill="#C59F6D"/>
<path d="M89.8009 225.332C87.4074 223.876 83.9991 223.683 83.9991 223.683C92.0815 226.401 98.2126 233.66 98.2259 242.197C98.2196 260.264 74.2709 277.506 63.8176 277.422C70.516 277.586 77.163 275.12 83.5984 270.067C99.7439 257.416 107.726 236.128 89.8009 225.332Z" fill="#D59A77"/>
<path d="M54.8308 229.522C54.8308 229.522 21.8698 256.661 48.6728 272.723C48.6986 272.743 25.5021 258.477 54.8308 229.522Z" fill="#B6724D"/>
<path d="M27.2097 171.867C27.2097 171.867 38.6066 175.211 48.4969 170.346L51.8921 171.928C51.8921 171.928 53.0573 185.421 63.4768 191.883L64.0178 184.979C64.0178 184.979 54.9069 172.611 54.7007 172.445C54.4944 172.28 50.1361 169.414 50.1361 169.414L39.604 164.941L26.4475 168.327L27.2097 171.867Z" fill="#945339"/>
<path d="M33.6727 142.017C32.7069 142.005 31.7558 142.344 31.0364 143.081L32.522 143.978L33.6727 142.017Z" fill="white"/>
<path d="M35.9758 142.848C35.3828 142.371 34.6706 142.096 33.958 142.033L35.7944 143.126L35.9758 142.848Z" fill="#71495A"/>
<path d="M36.9496 143.8C36.7382 143.588 36.5269 143.376 36.3105 143.117C36.2281 143.009 36.0992 142.905 35.9961 142.822L35.8147 143.101L36.9496 143.8Z" fill="#D8BFB4"/>
<path d="M34.5853 145.211L35.8187 143.147L33.9823 142.054C33.8894 142.064 33.7913 142.028 33.6983 142.038L32.5477 143.998L34.5853 145.211Z" fill="#D8BFB4"/>
<path d="M34.586 145.21L36.6494 146.444L37.7222 144.633C37.48 144.354 37.2172 144.1 36.9492 143.8L35.7937 143.126L34.586 145.21Z" fill="white"/>
<path d="M38.7065 147.632L39.3803 146.476C38.8652 145.85 38.3035 145.229 37.6953 144.613L36.6225 146.424L38.7065 147.632Z" fill="#D8BFB4"/>
<path d="M40.7704 148.865L41.0088 148.462C40.5144 147.81 39.9476 147.143 39.3809 146.476L38.707 147.631L40.7704 148.865Z" fill="white"/>
<path d="M41.8026 149.482C41.5554 149.156 41.2824 148.809 41.0352 148.483L40.7967 148.886L41.8026 149.482Z" fill="#D8BFB4"/>
<path d="M74.0336 168.08C73.6257 168.006 73.2436 167.954 72.8616 167.902L73.8159 168.456L74.0336 168.08Z" fill="white"/>
<path d="M75.8793 169.69L76.5324 168.56C75.6651 168.372 74.8494 168.226 74.0336 168.079L73.8159 168.456L75.8793 169.69Z" fill="#D8BFB4"/>
<path d="M77.9631 170.897L79.0152 169.112C78.1686 168.898 77.3478 168.705 76.5528 168.533L75.8997 169.663L77.9631 170.897Z" fill="white"/>
<path d="M81.3953 169.794C81.2715 169.737 81.1734 169.7 81.0289 169.669C80.714 169.586 80.4456 169.497 80.1307 169.414L81.214 170.072L81.3953 169.794Z" fill="#71495A"/>
<path d="M83.1225 171.181C82.7261 170.566 82.1073 170.069 81.3952 169.794L81.2138 170.072L83.1225 171.181Z" fill="#D8BFB4"/>
<path d="M80.0267 172.131L81.2601 170.067L80.1769 169.409C79.7898 169.31 79.4026 169.211 79.0154 169.112L77.9633 170.897L80.0267 172.131Z" fill="#D8BFB4"/>
<path d="M80.0274 172.13L82.0907 173.364L83.2621 171.378C83.2312 171.311 83.2004 171.243 83.1488 171.202L81.2609 170.067L80.0274 172.13Z" fill="white"/>
<path d="M83.6225 174.255C83.9138 173.259 83.7507 172.195 83.2617 171.378L82.0904 173.364L83.6225 174.255Z" fill="#D8BFB4"/>
<path d="M32.5223 143.977L31.0367 143.081C31.0159 143.107 30.9952 143.132 30.9952 143.132C30.5087 143.632 29.96 144.21 29.375 144.885L31.3095 146.015L32.5223 143.977Z" fill="#D8BFB4"/>
<path d="M28.7109 145.71C28.4417 146.045 28.131 146.432 27.841 146.793L28.0164 146.891L28.7109 145.71Z" fill="#D8BFB4"/>
<path d="M30.0548 148.104L31.2883 146.04L29.3538 144.91C29.1467 145.168 28.9138 145.405 28.6859 145.689L27.9914 146.87L30.0548 148.104Z" fill="white"/>
<path d="M34.6004 145.232L32.5234 144.001L31.2927 146.078L33.3697 147.309L34.6004 145.232Z" fill="#71495A"/>
<path d="M36.6532 146.419L34.5762 145.188L33.3454 147.265L35.4224 148.496L36.6532 146.419Z" fill="#D8BFB4"/>
<path d="M33.368 147.296L31.291 146.065L30.0602 148.142L32.1372 149.373L33.368 147.296Z" fill="#D8BFB4"/>
<path d="M35.4481 148.502L33.3711 147.271L32.1403 149.348L34.2173 150.579L35.4481 148.502Z" fill="white"/>
<path d="M38.7215 147.654L36.6445 146.423L35.4138 148.5L37.4908 149.731L38.7215 147.654Z" fill="#71495A"/>
<path d="M40.7821 148.888L38.7051 147.657L37.4743 149.734L39.5513 150.965L40.7821 148.888Z" fill="#D8BFB4"/>
<path d="M37.5125 149.736L35.4355 148.505L34.2048 150.582L36.2818 151.813L37.5125 149.736Z" fill="#D8BFB4"/>
<path d="M39.5497 150.951L37.4727 149.721L36.2419 151.798L38.3189 153.028L39.5497 150.951Z" fill="white"/>
<path d="M39.5626 150.949L41.6259 152.182L42.5796 150.573C42.3066 150.226 42.0543 149.854 41.7812 149.507L40.7753 148.911L39.5626 150.949Z" fill="#71495A"/>
<path d="M43.6624 153.396L44.0615 152.741C43.6084 152.037 43.1038 151.292 42.5527 150.553L41.5991 152.162L43.6624 153.396Z" fill="#D8BFB4"/>
<path d="M41.6141 152.186L39.5371 150.955L38.3063 153.032L40.3833 154.263L41.6141 152.186Z" fill="#D8BFB4"/>
<path d="M43.6961 153.391L41.6191 152.16L40.3884 154.237L42.4654 155.468L43.6961 153.391Z" fill="white"/>
<path d="M44.9951 154.167C44.7069 153.681 44.398 153.221 44.084 152.714L43.6849 153.369L44.9951 154.167Z" fill="#71495A"/>
<path d="M42.4766 155.454L44.54 156.687L45.5351 155.026C45.3859 154.737 45.1902 154.452 45.041 154.163L43.7566 153.385L42.4766 155.454Z" fill="#D8BFB4"/>
<path d="M46.5773 157.9L46.8364 157.472C46.4455 156.691 46.003 155.869 45.4883 155.031L44.4932 156.692L46.5773 157.9Z" fill="white"/>
<path d="M47.2792 158.293C47.1558 158.024 47.0066 157.735 46.8574 157.445L46.5983 157.873L47.2792 158.293Z" fill="#D8BFB4"/>
<path d="M63.3379 167.293C63.0331 167.303 62.7542 167.333 62.4702 167.317L63.0995 167.696L63.3379 167.293Z" fill="white"/>
<path d="M68.834 167.422C68.2659 167.39 67.7444 167.353 67.2021 167.341L68.4607 168.098L68.834 167.422Z" fill="#D8BFB4"/>
<path d="M65.1842 168.903L66.1586 167.267C65.167 167.234 64.2528 167.263 63.3593 167.267L63.1209 167.669L65.1842 168.903Z" fill="#D8BFB4"/>
<path d="M67.247 170.136L68.4805 168.073L67.2218 167.316C66.8655 167.285 66.4885 167.279 66.158 167.268L65.1836 168.903L67.247 170.136Z" fill="white"/>
<path d="M70.5452 169.307L71.4988 167.697C70.5952 167.608 69.7122 167.492 68.8601 167.444L68.4818 168.073L70.5452 169.307Z" fill="#71495A"/>
<path d="M72.5825 170.519L73.816 168.456L72.8617 167.901C72.4073 167.833 71.9529 167.765 71.4779 167.722L70.5242 169.332L72.5825 170.519Z" fill="#D8BFB4"/>
<path d="M70.5321 169.31L68.4551 168.079L67.2243 170.156L69.3013 171.387L70.5321 169.31Z" fill="#D8BFB4"/>
<path d="M72.5965 170.543L70.5195 169.312L69.2888 171.389L71.3658 172.62L72.5965 170.543Z" fill="white"/>
<path d="M75.9129 169.684L73.8359 168.453L72.6052 170.53L74.6822 171.761L75.9129 169.684Z" fill="#71495A"/>
<path d="M77.9774 170.917L75.9004 169.687L74.6696 171.764L76.7466 172.994L77.9774 170.917Z" fill="#D8BFB4"/>
<path d="M74.6805 171.748L72.6035 170.518L71.3727 172.595L73.4497 173.825L74.6805 171.748Z" fill="#D8BFB4"/>
<path d="M76.743 172.982L74.666 171.751L73.4352 173.828L75.5122 175.059L76.743 172.982Z" fill="white"/>
<path d="M80.0438 172.151L77.9668 170.92L76.736 172.997L78.813 174.228L80.0438 172.151Z" fill="#71495A"/>
<path d="M82.1102 173.384L80.0332 172.153L78.8024 174.23L80.8794 175.461L82.1102 173.384Z" fill="#D8BFB4"/>
<path d="M78.8075 174.216L76.7305 172.985L75.4997 175.062L77.5767 176.293L78.8075 174.216Z" fill="#D8BFB4"/>
<path d="M80.8739 175.45L78.7969 174.219L77.5661 176.296L79.6431 177.527L80.8739 175.45Z" fill="white"/>
<path d="M80.8567 175.427L82.8427 176.598C83.1543 175.788 83.3986 175.009 83.6324 174.348C83.6531 174.322 83.6273 174.301 83.648 174.276L82.0902 173.363L80.8567 175.427Z" fill="#71495A"/>
<path d="M79.6215 177.491L81.6849 178.724L82.5764 177.192C82.6491 176.996 82.7218 176.8 82.7945 176.604L80.8085 175.433L79.6215 177.491Z" fill="#D8BFB4"/>
<path d="M81.9073 178.817C82.1512 178.25 82.3952 177.682 82.5977 177.166L81.7061 178.698L81.9073 178.817Z" fill="white"/>
<path d="M28.018 146.891L27.8426 146.792C27.3662 147.385 26.9206 148.046 26.4079 148.737L26.7845 148.954L28.018 146.891Z" fill="#71495A"/>
<path d="M30.0692 148.127L27.9922 146.896L26.7614 148.973L28.8384 150.204L30.0692 148.127Z" fill="#D8BFB4"/>
<path d="M26.7844 148.955L26.4078 148.737C25.983 149.372 25.5374 150.032 25.0712 150.718L25.5251 150.997L26.7844 148.955Z" fill="#D8BFB4"/>
<path d="M28.8622 150.209L26.7852 148.979L25.5544 151.056L27.6314 152.286L28.8622 150.209Z" fill="white"/>
<path d="M32.1493 149.332L30.0723 148.102L28.8415 150.179L30.9185 151.409L32.1493 149.332Z" fill="#71495A"/>
<path d="M34.2137 150.566L32.1367 149.335L30.9059 151.412L32.9829 152.643L34.2137 150.566Z" fill="#D8BFB4"/>
<path d="M30.9149 151.398L28.8379 150.167L27.6071 152.244L29.6841 153.475L30.9149 151.398Z" fill="#D8BFB4"/>
<path d="M32.9813 152.631L30.9043 151.4L29.6735 153.477L31.7505 154.708L32.9813 152.631Z" fill="white"/>
<path d="M36.2782 151.799L34.2012 150.568L32.9704 152.645L35.0474 153.876L36.2782 151.799Z" fill="#71495A"/>
<path d="M38.3446 153.034L36.2676 151.804L35.0368 153.881L37.1138 155.111L38.3446 153.034Z" fill="#D8BFB4"/>
<path d="M35.0457 153.866L32.9688 152.635L31.738 154.712L33.815 155.943L35.0457 153.866Z" fill="#D8BFB4"/>
<path d="M37.1102 155.099L35.0332 153.868L33.8024 155.945L35.8794 157.176L37.1102 155.099Z" fill="white"/>
<path d="M40.4266 154.24L38.3496 153.009L37.1188 155.086L39.1958 156.317L40.4266 154.24Z" fill="#71495A"/>
<path d="M42.4618 155.455L40.3848 154.225L39.154 156.302L41.231 157.532L42.4618 155.455Z" fill="#D8BFB4"/>
<path d="M39.1942 156.304L37.1172 155.073L35.8864 157.15L37.9634 158.381L39.1942 156.304Z" fill="#D8BFB4"/>
<path d="M41.2567 157.537L39.1797 156.307L37.9489 158.384L40.0259 159.614L41.2567 157.537Z" fill="white"/>
<path d="M44.5262 156.69L42.4492 155.459L41.2184 157.536L43.2954 158.767L44.5262 156.69Z" fill="#71495A"/>
<path d="M46.5907 157.923L44.5137 156.692L43.2829 158.769L45.3599 160L46.5907 157.923Z" fill="#D8BFB4"/>
<path d="M43.3231 158.771L41.2461 157.54L40.0153 159.617L42.0923 160.848L43.3231 158.771Z" fill="#D8BFB4"/>
<path d="M45.3758 159.959L43.2988 158.729L42.0681 160.806L44.1451 162.036L45.3758 159.959Z" fill="white"/>
<path d="M45.3688 159.984L47.4322 161.217L48.0853 160.087C47.8334 159.503 47.5608 158.945 47.2574 158.319L46.5765 157.9L45.3688 159.984Z" fill="#71495A"/>
<path d="M48.9141 162.067C48.683 161.457 48.3952 160.759 48.1074 160.062L47.4543 161.191L48.9141 162.067Z" fill="#D8BFB4"/>
<path d="M47.4403 161.193L45.3633 159.962L44.1325 162.039L46.2095 163.27L47.4403 161.193Z" fill="#D8BFB4"/>
<path d="M46.2211 163.255L48.2845 164.488L49.2381 162.879C49.1405 162.631 49.0378 162.336 48.9402 162.088L47.4546 161.191L46.2211 163.255Z" fill="white"/>
<path d="M50.0695 165.54C49.8747 164.833 49.6131 163.944 49.2383 162.879L48.2846 164.488L50.0695 165.54Z" fill="#D8BFB4"/>
<path d="M57.4445 167.817C56.3802 167.981 55.4863 168.196 54.7732 168.344L56.5065 169.355L57.4445 167.817Z" fill="white"/>
<path d="M60.4609 167.442C59.717 167.523 59.0196 167.599 58.3687 167.67L59.8028 168.525L60.4609 167.442Z" fill="#71495A"/>
<path d="M61.8669 169.759L63.1004 167.695L62.4711 167.317C61.7686 167.347 61.0919 167.397 60.4617 167.442L59.8035 168.525L61.8669 169.759Z" fill="#D8BFB4"/>
<path d="M58.5942 170.609L59.8277 168.545L58.3937 167.69C58.0682 167.726 57.7686 167.782 57.4689 167.838L56.5567 169.396L58.5942 170.609Z" fill="#D8BFB4"/>
<path d="M61.8993 169.755L59.8223 168.524L58.5915 170.601L60.6685 171.832L61.8993 169.755Z" fill="white"/>
<path d="M65.1981 168.924L63.1211 167.693L61.8903 169.77L63.9673 171.001L65.1981 168.924Z" fill="#71495A"/>
<path d="M67.2625 170.158L65.1855 168.927L63.9548 171.004L66.0318 172.235L67.2625 170.158Z" fill="#D8BFB4"/>
<path d="M63.9637 170.989L61.8867 169.758L60.6559 171.835L62.7329 173.066L63.9637 170.989Z" fill="#D8BFB4"/>
<path d="M66.0282 172.223L63.9512 170.992L62.7204 173.069L64.7974 174.3L66.0282 172.223Z" fill="white"/>
<path d="M69.327 171.391L67.25 170.16L66.0192 172.237L68.0962 173.468L69.327 171.391Z" fill="#71495A"/>
<path d="M71.411 172.596L69.334 171.365L68.1032 173.442L70.1802 174.673L71.411 172.596Z" fill="#D8BFB4"/>
<path d="M68.0926 173.456L66.0156 172.226L64.7849 174.303L66.8619 175.533L68.0926 173.456Z" fill="#D8BFB4"/>
<path d="M70.1747 174.661L68.0977 173.431L66.8669 175.508L68.9439 176.738L70.1747 174.661Z" fill="white"/>
<path d="M73.4461 173.813L71.3691 172.582L70.1384 174.659L72.2154 175.89L73.4461 173.813Z" fill="#71495A"/>
<path d="M75.5106 175.047L73.4336 173.816L72.2028 175.893L74.2798 177.124L75.5106 175.047Z" fill="#D8BFB4"/>
<path d="M72.2411 175.895L70.1641 174.664L68.9333 176.741L71.0103 177.972L72.2411 175.895Z" fill="#D8BFB4"/>
<path d="M74.3055 177.128L72.2285 175.897L70.9977 177.974L73.0747 179.205L74.3055 177.128Z" fill="white"/>
<path d="M77.575 176.281L75.498 175.05L74.2673 177.127L76.3443 178.358L77.575 176.281Z" fill="#71495A"/>
<path d="M79.6571 177.486L77.5801 176.255L76.3493 178.332L78.4263 179.563L79.6571 177.486Z" fill="#D8BFB4"/>
<path d="M76.3407 178.346L74.2637 177.115L73.0329 179.192L75.1099 180.423L76.3407 178.346Z" fill="#D8BFB4"/>
<path d="M78.4227 179.551L76.3457 178.32L75.1149 180.397L77.1919 181.628L78.4227 179.551Z" fill="white"/>
<path d="M81.7215 178.719L79.6445 177.488L78.4138 179.565L80.4908 180.796L81.7215 178.719Z" fill="#71495A"/>
<path d="M80.4724 180.762L80.8747 181C81.2379 180.232 81.606 179.509 81.907 178.818L81.7058 178.699L80.4724 180.762Z" fill="#D8BFB4"/>
<path d="M80.4911 180.784L78.4141 179.554L77.1833 181.631L79.2603 182.861L80.4911 180.784Z" fill="#D8BFB4"/>
<path d="M79.2661 182.845L79.7923 183.141C80.207 182.414 80.5752 181.691 80.9019 181.02L80.4996 180.782L79.2661 182.845Z" fill="white"/>
<path d="M25.5492 151.018L25.0953 150.738C24.6963 151.393 24.2765 152.074 23.836 152.781L24.3157 153.081L25.5492 151.018Z" fill="#71495A"/>
<path d="M27.6454 152.245L25.5684 151.015L24.3376 153.092L26.4146 154.322L27.6454 152.245Z" fill="#D8BFB4"/>
<path d="M24.3172 153.082L23.8375 152.781C23.7804 152.905 23.7183 152.982 23.6612 153.106C23.3036 153.71 22.946 154.313 22.6298 154.865L23.1095 155.166L24.3172 153.082Z" fill="#D8BFB4"/>
<path d="M26.4129 154.311L24.3359 153.08L23.1052 155.157L25.1822 156.388L26.4129 154.311Z" fill="white"/>
<path d="M29.7118 153.48L27.6348 152.249L26.404 154.326L28.481 155.557L29.7118 153.48Z" fill="#71495A"/>
<path d="M31.7743 154.713L29.6973 153.482L28.4665 155.559L30.5435 156.79L31.7743 154.713Z" fill="#D8BFB4"/>
<path d="M28.4774 155.544L26.4004 154.313L25.1696 156.39L27.2466 157.621L28.4774 155.544Z" fill="#D8BFB4"/>
<path d="M30.5418 156.778L28.4648 155.547L27.2341 157.624L29.3111 158.855L30.5418 156.778Z" fill="white"/>
<path d="M33.8114 155.93L31.7344 154.699L30.5036 156.776L32.5806 158.007L33.8114 155.93Z" fill="#71495A"/>
<path d="M35.8954 157.135L33.8184 155.904L32.5876 157.981L34.6646 159.212L35.8954 157.135Z" fill="#D8BFB4"/>
<path d="M32.6063 158.012L30.5293 156.781L29.2985 158.858L31.3755 160.089L32.6063 158.012Z" fill="#D8BFB4"/>
<path d="M34.6883 159.217L32.6113 157.986L31.3806 160.063L33.4576 161.294L34.6883 159.217Z" fill="white"/>
<path d="M37.9579 158.368L35.8809 157.138L34.6501 159.215L36.7271 160.445L37.9579 158.368Z" fill="#71495A"/>
<path d="M40.0223 159.602L37.9453 158.371L36.7145 160.448L38.7915 161.679L40.0223 159.602Z" fill="#D8BFB4"/>
<path d="M36.7235 160.434L34.6465 159.203L33.4157 161.28L35.4927 162.511L36.7235 160.434Z" fill="#D8BFB4"/>
<path d="M38.7899 161.667L36.7129 160.437L35.4821 162.514L37.5591 163.744L38.7899 161.667Z" fill="white"/>
<path d="M42.0887 160.836L40.0117 159.605L38.7809 161.682L40.858 162.913L42.0887 160.836Z" fill="#71495A"/>
<path d="M44.1727 162.041L42.0957 160.811L40.8649 162.888L42.9419 164.118L44.1727 162.041Z" fill="#D8BFB4"/>
<path d="M40.87 162.872L38.793 161.642L37.5622 163.719L39.6392 164.949L40.87 162.872Z" fill="#D8BFB4"/>
<path d="M42.9364 164.106L40.8594 162.875L39.6286 164.952L41.7056 166.183L42.9364 164.106Z" fill="white"/>
<path d="M46.2332 163.275L44.1562 162.044L42.9255 164.121L45.0025 165.352L46.2332 163.275Z" fill="#71495A"/>
<path d="M48.2704 164.492L46.1934 163.261L44.9626 165.338L47.0396 166.569L48.2704 164.492Z" fill="#D8BFB4"/>
<path d="M45.0008 165.34L42.9238 164.109L41.6931 166.186L43.7701 167.417L45.0008 165.34Z" fill="#D8BFB4"/>
<path d="M47.0653 166.574L44.9883 165.343L43.7575 167.42L45.8345 168.651L47.0653 166.574Z" fill="white"/>
<path d="M47.0508 166.551L48.8614 167.624L49.6959 166.216C49.7944 166.04 49.9702 165.927 50.1511 165.86C50.1152 165.747 50.105 165.654 50.0691 165.54L48.2843 164.488L47.0508 166.551Z" fill="#71495A"/>
<path d="M47.0499 166.551L45.8164 168.615L47.6271 169.688L48.6636 167.975L48.8605 167.624L47.0499 166.551Z" fill="#D8BFB4"/>
<path d="M54.5239 169.078L53.6895 170.486L55.3247 171.46L56.5582 169.397L54.8249 168.386C54.7319 168.396 54.6647 168.427 54.5975 168.458C54.6385 168.618 54.6431 168.876 54.5239 169.078Z" fill="#D8BFB4"/>
<path d="M53.6898 170.486L53.467 170.816L52.4563 172.549L54.0915 173.523L55.2992 171.439L53.6898 170.486Z" fill="white"/>
<path d="M58.6122 170.632L56.5352 169.401L55.3044 171.478L57.3814 172.709L58.6122 170.632Z" fill="#71495A"/>
<path d="M60.6942 171.837L58.6172 170.606L57.3864 172.683L59.4634 173.914L60.6942 171.837Z" fill="#D8BFB4"/>
<path d="M57.3954 172.668L55.3184 171.438L54.0876 173.515L56.1646 174.745L57.3954 172.668Z" fill="#D8BFB4"/>
<path d="M59.4598 173.902L57.3828 172.671L56.152 174.748L58.229 175.979L59.4598 173.902Z" fill="white"/>
<path d="M62.7586 173.071L60.6816 171.84L59.4509 173.917L61.5279 175.148L62.7586 173.071Z" fill="#71495A"/>
<path d="M64.7958 174.287L62.7188 173.057L61.488 175.134L63.565 176.364L64.7958 174.287Z" fill="#D8BFB4"/>
<path d="M61.5262 175.135L59.4492 173.904L58.2184 175.981L60.2954 177.212L61.5262 175.135Z" fill="#D8BFB4"/>
<path d="M63.5887 176.369L61.5117 175.139L60.2809 177.216L62.3579 178.446L63.5887 176.369Z" fill="white"/>
<path d="M66.8778 175.492L64.8008 174.262L63.57 176.339L65.647 177.569L66.8778 175.492Z" fill="#71495A"/>
<path d="M68.9422 176.727L66.8652 175.496L65.6345 177.573L67.7115 178.804L68.9422 176.727Z" fill="#D8BFB4"/>
<path d="M65.6707 177.574L63.5938 176.343L62.363 178.42L64.44 179.651L65.6707 177.574Z" fill="#D8BFB4"/>
<path d="M67.7079 178.791L65.6309 177.561L64.4001 179.638L66.4771 180.868L67.7079 178.791Z" fill="white"/>
<path d="M71.0086 177.959L68.9316 176.729L67.7009 178.806L69.7779 180.036L71.0086 177.959Z" fill="#71495A"/>
<path d="M73.0711 179.194L70.9941 177.963L69.7634 180.04L71.8404 181.271L73.0711 179.194Z" fill="#D8BFB4"/>
<path d="M69.7723 180.025L67.6953 178.794L66.4645 180.871L68.5415 182.102L69.7723 180.025Z" fill="#D8BFB4"/>
<path d="M71.8387 181.258L69.7617 180.027L68.5309 182.104L70.6079 183.335L71.8387 181.258Z" fill="white"/>
<path d="M75.1532 180.399L73.0762 179.168L71.8454 181.245L73.9224 182.476L75.1532 180.399Z" fill="#71495A"/>
<path d="M77.2196 181.632L75.1426 180.401L73.9118 182.478L75.9888 183.709L77.2196 181.632Z" fill="#D8BFB4"/>
<path d="M73.9208 182.463L71.8438 181.232L70.613 183.309L72.69 184.54L73.9208 182.463Z" fill="#D8BFB4"/>
<path d="M75.9832 183.698L73.9062 182.467L72.6755 184.544L74.7525 185.775L75.9832 183.698Z" fill="white"/>
<path d="M79.2547 182.85L77.1777 181.619L75.947 183.696L78.024 184.927L79.2547 182.85Z" fill="#71495A"/>
<path d="M78.0325 184.909L78.5845 185.225C79.025 184.519 79.4189 183.817 79.7922 183.141L79.266 182.846L78.0325 184.909Z" fill="#D8BFB4"/>
<path d="M78.0497 184.931L75.9727 183.7L74.7419 185.777L76.8189 187.008L78.0497 184.931Z" fill="#D8BFB4"/>
<path d="M76.7981 186.973L77.3501 187.289C77.7128 186.732 78.0497 186.154 78.3815 185.53C78.4644 185.427 78.5007 185.329 78.5836 185.226L78.0316 184.909L76.7981 186.973Z" fill="white"/>
<path d="M23.1102 155.165L22.6305 154.864C22.2158 155.591 21.8476 156.314 21.495 156.964L21.8974 157.202L23.1102 155.165Z" fill="#71495A"/>
<path d="M25.1786 156.375L23.1016 155.145L21.8708 157.222L23.9478 158.452L25.1786 156.375Z" fill="#D8BFB4"/>
<path d="M21.8766 157.228L21.4742 156.99C21.0853 157.738 20.7429 158.481 20.4161 159.152L20.6431 159.292L21.8766 157.228Z" fill="#D8BFB4"/>
<path d="M23.9735 158.457L21.8965 157.227L20.6657 159.304L22.7427 160.534L23.9735 158.457Z" fill="white"/>
<path d="M27.243 157.61L25.166 156.379L23.9352 158.456L26.0122 159.687L27.243 157.61Z" fill="#71495A"/>
<path d="M29.3075 158.843L27.2305 157.612L25.9997 159.689L28.0767 160.92L29.3075 158.843Z" fill="#D8BFB4"/>
<path d="M26.0086 159.674L23.9316 158.443L22.7009 160.52L24.7779 161.751L26.0086 159.674Z" fill="#D8BFB4"/>
<path d="M28.075 160.908L25.998 159.677L24.7673 161.754L26.8443 162.985L28.075 160.908Z" fill="white"/>
<path d="M31.3914 160.048L29.3145 158.817L28.0837 160.894L30.1607 162.125L31.3914 160.048Z" fill="#71495A"/>
<path d="M33.454 161.282L31.377 160.051L30.1462 162.128L32.2232 163.359L33.454 161.282Z" fill="#D8BFB4"/>
<path d="M30.1551 162.113L28.0781 160.882L26.8474 162.959L28.9244 164.19L30.1551 162.113Z" fill="#D8BFB4"/>
<path d="M32.2215 163.347L30.1445 162.116L28.9138 164.193L30.9908 165.424L32.2215 163.347Z" fill="white"/>
<path d="M35.5184 162.515L33.4414 161.284L32.2106 163.361L34.2876 164.592L35.5184 162.515Z" fill="#71495A"/>
<path d="M37.5848 163.748L35.5078 162.518L34.277 164.595L36.354 165.825L37.5848 163.748Z" fill="#D8BFB4"/>
<path d="M34.2879 164.58L32.2109 163.35L30.9802 165.427L33.0572 166.657L34.2879 164.58Z" fill="#D8BFB4"/>
<path d="M36.3661 165.785L34.2891 164.555L33.0583 166.632L35.1353 167.862L36.3661 165.785Z" fill="white"/>
<path d="M39.6375 164.938L37.5605 163.707L36.3298 165.784L38.4068 167.015L39.6375 164.938Z" fill="#71495A"/>
<path d="M41.702 166.171L39.625 164.94L38.3942 167.017L40.4712 168.248L41.702 166.171Z" fill="#D8BFB4"/>
<path d="M38.4325 167.019L36.3555 165.788L35.1247 167.865L37.2017 169.096L38.4325 167.019Z" fill="#D8BFB4"/>
<path d="M40.4989 168.252L38.4219 167.021L37.1911 169.098L39.2681 170.329L40.4989 168.252Z" fill="white"/>
<path d="M43.7664 167.405L41.6895 166.174L40.4587 168.251L42.5357 169.482L43.7664 167.405Z" fill="#71495A"/>
<path d="M45.8309 168.638L43.7539 167.407L42.5231 169.484L44.6001 170.715L45.8309 168.638Z" fill="#D8BFB4"/>
<path d="M40.4823 168.232L39.2488 170.296L40.8325 171.229C41.065 171.203 41.2767 171.204 41.5092 171.178L42.5199 169.445L40.4823 168.232Z" fill="#D8BFB4"/>
<path d="M42.5194 169.444L41.5087 171.178C42.6296 171.102 43.6267 170.97 44.505 170.827L44.5828 170.678L42.5194 169.444Z" fill="white"/>
<path d="M47.6066 169.713L45.8167 168.614L44.5832 170.678L44.7586 170.776C45.8901 170.582 46.8099 170.388 47.5178 170.193C47.5026 170.054 47.5288 169.863 47.6066 169.713Z" fill="#71495A"/>
<path d="M44.507 170.828C44.6 170.818 44.693 170.807 44.7602 170.777L44.5848 170.678L44.507 170.828Z" fill="#D8BFB4"/>
<path d="M54.0926 173.523L52.4573 172.549L52.4366 172.575C52.3174 172.776 52.1416 172.889 51.9349 172.935C52.1039 173.623 52.3862 174.486 52.7095 175.509L52.8333 175.566L54.0926 173.523Z" fill="#D8BFB4"/>
<path d="M52.7559 175.504C52.7867 175.571 52.7918 175.618 52.8226 175.685L52.8848 175.607L52.7559 175.504Z" fill="white"/>
<path d="M56.161 174.733L54.084 173.502L52.8532 175.579L54.9302 176.81L56.161 174.733Z" fill="#71495A"/>
<path d="M58.2274 175.966L56.1504 174.735L54.9196 176.812L56.9966 178.043L58.2274 175.966Z" fill="#D8BFB4"/>
<path d="M52.8581 175.586L52.796 175.664C53.0989 176.501 53.4844 177.447 53.9264 178.481L54.9422 176.794L52.8581 175.586Z" fill="#D8BFB4"/>
<path d="M57.0047 178.027L54.9413 176.794L53.9255 178.481C54.0438 178.703 54.1157 178.93 54.234 179.153L55.7661 180.044L57.0047 178.027Z" fill="white"/>
<path d="M60.2899 177.2L58.2129 175.97L56.9821 178.047L59.0591 179.277L60.2899 177.2Z" fill="#71495A"/>
<path d="M62.3739 178.406L60.2969 177.175L59.0661 179.252L61.1431 180.483L62.3739 178.406Z" fill="#D8BFB4"/>
<path d="M59.0575 179.265L56.9805 178.034L55.7497 180.111L57.8267 181.342L59.0575 179.265Z" fill="#D8BFB4"/>
<path d="M61.1395 180.471L59.0625 179.24L57.8317 181.317L59.9087 182.548L61.1395 180.471Z" fill="white"/>
<path d="M64.4383 179.64L62.3613 178.409L61.1306 180.486L63.2076 181.717L64.4383 179.64Z" fill="#71495A"/>
<path d="M66.5028 180.873L64.4258 179.643L63.195 181.72L65.272 182.95L66.5028 180.873Z" fill="#D8BFB4"/>
<path d="M63.2079 181.703L61.1309 180.473L59.9001 182.55L61.9771 183.78L63.2079 181.703Z" fill="#D8BFB4"/>
<path d="M65.2684 182.938L63.1914 181.707L61.9606 183.784L64.0376 185.015L65.2684 182.938Z" fill="white"/>
<path d="M68.5399 182.09L66.4629 180.859L65.2321 182.936L67.3091 184.167L68.5399 182.09Z" fill="#71495A"/>
<path d="M70.6219 183.295L68.5449 182.064L67.3141 184.141L69.3911 185.372L70.6219 183.295Z" fill="#D8BFB4"/>
<path d="M67.3348 184.171L65.2578 182.94L64.027 185.017L66.104 186.248L67.3348 184.171Z" fill="#D8BFB4"/>
<path d="M69.4149 185.376L67.3379 184.146L66.1071 186.223L68.1841 187.453L69.4149 185.376Z" fill="white"/>
<path d="M72.6864 184.529L70.6094 183.298L69.3786 185.375L71.4556 186.606L72.6864 184.529Z" fill="#71495A"/>
<path d="M74.7508 185.762L72.6738 184.531L71.4431 186.608L73.52 187.839L74.7508 185.762Z" fill="#D8BFB4"/>
<path d="M71.452 186.593L69.375 185.362L68.1442 187.439L70.2212 188.67L71.452 186.593Z" fill="#D8BFB4"/>
<path d="M73.5164 187.827L71.4395 186.597L70.2087 188.674L72.2857 189.904L73.5164 187.827Z" fill="white"/>
<path d="M76.8172 186.995L74.7402 185.765L73.5095 187.842L75.5865 189.072L76.8172 186.995Z" fill="#71495A"/>
<path d="M75.5649 189.036L76.0189 189.316C76.4437 188.681 76.8892 188.021 77.3297 187.314L76.7777 186.998L75.5649 189.036Z" fill="#D8BFB4"/>
<path d="M75.5985 189.033L73.5215 187.802L72.2907 189.879L74.3677 191.11L75.5985 189.033Z" fill="#D8BFB4"/>
<path d="M74.356 191.121L74.6345 191.302C75.0851 190.688 75.5564 190.049 76.0434 189.337L75.5894 189.057L74.356 191.121Z" fill="white"/>
<path d="M20.4156 159.152C20.1146 159.844 19.8293 160.463 19.5904 161.077L20.6633 159.266L20.4156 159.152Z" fill="#71495A"/>
<path d="M22.7273 160.5L20.664 159.267L19.5911 161.077C19.5548 161.175 19.5184 161.273 19.482 161.371L21.4938 162.563L22.7273 160.5Z" fill="#D8BFB4"/>
<path d="M21.4941 162.563L19.4823 161.371C19.1501 162.207 18.8799 162.966 18.6512 163.673L20.2864 164.647L21.4941 162.563Z" fill="white"/>
<path d="M24.8055 161.755L22.7285 160.524L21.4977 162.601L23.5747 163.832L24.8055 161.755Z" fill="#71495A"/>
<path d="M26.8856 162.961L24.8086 161.73L23.5778 163.807L25.6548 165.038L26.8856 162.961Z" fill="#D8BFB4"/>
<path d="M23.5692 163.821L21.4922 162.59L20.2614 164.667L22.3384 165.898L23.5692 163.821Z" fill="#D8BFB4"/>
<path d="M25.6512 165.026L23.5742 163.795L22.3434 165.872L24.4204 167.103L25.6512 165.026Z" fill="white"/>
<path d="M28.9227 164.178L26.8457 162.947L25.6149 165.024L27.6919 166.255L28.9227 164.178Z" fill="#71495A"/>
<path d="M30.9872 165.411L28.9102 164.181L27.6794 166.258L29.7564 167.488L30.9872 165.411Z" fill="#D8BFB4"/>
<path d="M27.7176 166.259L25.6406 165.028L24.4099 167.105L26.4869 168.336L27.7176 166.259Z" fill="#D8BFB4"/>
<path d="M29.7821 167.493L27.7051 166.263L26.4743 168.34L28.5513 169.57L29.7821 167.493Z" fill="white"/>
<path d="M33.0516 166.645L30.9746 165.414L29.7438 167.491L31.8208 168.722L33.0516 166.645Z" fill="#71495A"/>
<path d="M35.1356 167.85L33.0586 166.619L31.8278 168.696L33.9048 169.927L35.1356 167.85Z" fill="#D8BFB4"/>
<path d="M31.8348 168.681L29.7578 167.45L28.527 169.527L30.604 170.758L31.8348 168.681Z" fill="#D8BFB4"/>
<path d="M31.83 168.705L30.5965 170.768L30.9731 170.986C31.7115 171.07 32.4241 171.134 33.1367 171.197L33.8934 169.939L31.83 168.705Z" fill="white"/>
<path d="M37.2 169.083L35.123 167.853L33.8923 169.93L35.9693 171.16L37.2 169.083Z" fill="#71495A"/>
<path d="M37.1855 169.062L35.952 171.125L36.3028 171.322C37.1033 171.329 37.878 171.315 38.6063 171.306L39.223 170.274L37.1855 169.062Z" fill="#D8BFB4"/>
<path d="M33.8893 169.892L33.1327 171.151C34.0828 171.235 34.9814 171.278 35.8542 171.301L35.9734 171.1L33.8893 169.892Z" fill="#D8BFB4"/>
<path d="M35.8335 171.327C35.9988 171.332 36.164 171.338 36.3035 171.323L35.9527 171.126L35.8335 171.327Z" fill="white"/>
<path d="M38.6316 171.327C39.4064 171.313 40.1553 171.278 40.832 171.228L39.2484 170.295L38.6316 171.327Z" fill="#71495A"/>
<path d="M54.2124 179.179C54.4901 179.783 54.8193 180.43 55.1278 181.102L55.7238 180.096L54.2124 179.179Z" fill="#D8BFB4"/>
<path d="M57.8348 181.324L55.7714 180.091L55.1754 181.097C55.5304 181.764 55.8904 182.477 56.3228 183.206L56.6478 183.383L57.8348 181.324Z" fill="#71495A"/>
<path d="M59.9051 182.535L57.8281 181.305L56.5974 183.382L58.6744 184.612L59.9051 182.535Z" fill="#D8BFB4"/>
<path d="M56.2965 183.185C56.3789 183.294 56.4406 183.428 56.4972 183.516L56.5957 183.341L56.2965 183.185Z" fill="#D8BFB4"/>
<path d="M56.6015 183.388L56.503 183.563C56.9353 184.292 57.3985 185.089 57.9289 185.854L58.6648 184.621L56.6015 183.388Z" fill="white"/>
<path d="M61.9696 183.769L59.8926 182.538L58.6618 184.615L60.7388 185.846L61.9696 183.769Z" fill="#71495A"/>
<path d="M64.036 185.002L61.959 183.771L60.7282 185.848L62.8052 187.079L64.036 185.002Z" fill="#D8BFB4"/>
<path d="M60.7488 185.829L58.6855 184.596L57.9495 185.829C58.3459 186.444 58.763 187.034 59.211 187.69L59.536 187.867L60.7488 185.829Z" fill="#D8BFB4"/>
<path d="M62.8016 187.067L60.7246 185.836L59.4938 187.913L61.5708 189.144L62.8016 187.067Z" fill="white"/>
<path d="M66.118 186.207L64.041 184.977L62.8102 187.054L64.8872 188.284L66.118 186.207Z" fill="#71495A"/>
<path d="M68.1805 187.442L66.1035 186.211L64.8727 188.288L66.9497 189.519L68.1805 187.442Z" fill="#D8BFB4"/>
<path d="M64.8836 188.273L62.8066 187.042L61.5759 189.119L63.6529 190.35L64.8836 188.273Z" fill="#D8BFB4"/>
<path d="M66.9481 189.506L64.8711 188.275L63.6403 190.352L65.7173 191.583L66.9481 189.506Z" fill="white"/>
<path d="M70.2469 188.675L68.1699 187.444L66.9391 189.521L69.0162 190.752L70.2469 188.675Z" fill="#71495A"/>
<path d="M72.3133 189.909L70.2363 188.678L69.0056 190.755L71.0825 191.986L72.3133 189.909Z" fill="#D8BFB4"/>
<path d="M69.0145 190.74L66.9375 189.509L65.7067 191.586L67.7837 192.817L69.0145 190.74Z" fill="#D8BFB4"/>
<path d="M71.0946 191.946L69.0176 190.715L67.7868 192.792L69.8638 194.023L71.0946 191.946Z" fill="white"/>
<path d="M74.3641 191.097L72.2871 189.866L71.0563 191.943L73.1333 193.174L74.3641 191.097Z" fill="#71495A"/>
<path d="M73.1442 193.158C73.6464 192.585 74.1435 191.967 74.6562 191.275L74.3777 191.094L73.1442 193.158Z" fill="#D8BFB4"/>
<path d="M71.0605 191.95L69.827 194.014L71.5138 195.029C72.0003 194.529 72.5232 193.931 73.0617 193.261L73.1238 193.184L71.0605 191.95Z" fill="#D8BFB4"/>
<path d="M20.2586 164.626L18.6234 163.652C18.5506 163.848 18.483 164.09 18.431 164.261C18.223 164.942 18.206 165.649 18.3958 166.311L19.0251 166.689L20.2586 164.626Z" fill="#D8BFB4"/>
<path d="M18.3968 166.311C18.4788 166.631 18.6022 166.9 18.7514 167.189L19.0519 166.71L18.3968 166.311Z" fill="white"/>
<path d="M22.3543 165.857L20.2773 164.626L19.0466 166.703L21.1236 167.934L22.3543 165.857Z" fill="#71495A"/>
<path d="M24.4188 167.091L22.3418 165.86L21.111 167.937L23.188 169.168L24.4188 167.091Z" fill="#D8BFB4"/>
<path d="M19.0526 166.71L18.7521 167.19C19.1586 167.898 19.7875 168.488 20.577 168.826L21.116 167.943L19.0526 166.71Z" fill="#D8BFB4"/>
<path d="M21.1366 167.919L20.5977 168.801C20.7215 168.858 20.866 168.889 20.9899 168.946C21.6454 169.134 22.3217 169.295 22.9772 169.483L23.1742 169.132L21.1366 167.919Z" fill="white"/>
<path d="M24.4062 167.067L23.1727 169.131L24.3024 169.784C24.6896 169.883 25.0509 169.961 25.4123 170.039L26.4437 168.28L24.4062 167.067Z" fill="#71495A"/>
<path d="M26.4706 168.302L25.4392 170.061C26.3065 170.249 27.1222 170.395 27.9379 170.541L28.534 169.535L26.4706 168.302Z" fill="#D8BFB4"/>
<path d="M22.9768 169.482C23.4362 169.596 23.8699 169.69 24.2828 169.81L23.1531 169.157L22.9768 169.482Z" fill="#D8BFB4"/>
<path d="M28.5339 169.535L27.9379 170.54C28.8259 170.702 29.6623 170.823 30.5195 170.918L30.618 170.742L28.5339 169.535Z" fill="#71495A"/>
<path d="M30.5183 170.917C30.6835 170.923 30.8281 170.954 30.9934 170.96L30.6168 170.742L30.5183 170.917Z" fill="#D8BFB4"/>
<path d="M59.2105 187.69C59.2929 187.799 59.3754 187.907 59.4578 188.016L59.5355 187.867L59.2105 187.69Z" fill="#71495A"/>
<path d="M59.5136 187.893L59.4358 188.042C59.9096 188.72 60.4556 189.413 61.0016 190.106L61.5769 189.126L59.5136 187.893Z" fill="#D8BFB4"/>
<path d="M61.578 189.126L61.0027 190.106C61.4972 190.758 62.0639 191.425 62.6307 192.093L63.6414 190.359L61.578 189.126Z" fill="#71495A"/>
<path d="M65.7254 191.567L63.662 190.334L62.6513 192.067C62.9193 192.367 63.1872 192.667 63.4551 192.968L64.5126 193.605L65.7254 191.567Z" fill="#D8BFB4"/>
<path d="M63.4355 192.992C63.7292 193.313 64.023 193.634 64.3167 193.955L64.493 193.63L63.4355 192.992Z" fill="white"/>
<path d="M67.7782 192.805L65.7012 191.574L64.4704 193.651L66.5474 194.882L67.7782 192.805Z" fill="#71495A"/>
<path d="M69.8602 194.01L67.7832 192.779L66.5524 194.856L68.6294 196.087L69.8602 194.01Z" fill="#D8BFB4"/>
<path d="M64.4929 193.63L64.3166 193.955C64.7959 194.468 65.2751 194.98 65.7751 195.466C65.8782 195.549 65.9606 195.658 66.038 195.72L66.5769 194.838L64.4929 193.63Z" fill="#D8BFB4"/>
<path d="M68.6394 196.071L66.5761 194.838L66.0371 195.72C66.7074 196.258 67.4919 196.549 68.3182 196.577L68.6394 196.071Z" fill="white"/>
<path d="M68.6399 196.071L69.3208 196.491C69.9615 196.327 70.6078 195.998 71.0943 195.498C71.2444 195.364 71.3894 195.184 71.5601 195.024L69.8734 194.008L68.6399 196.071Z" fill="#71495A"/>
<path d="M68.3197 196.577C68.6503 196.588 68.9757 196.552 69.3219 196.491L68.641 196.071L68.3197 196.577Z" fill="#D8BFB4"/>
<path d="M51.0785 169.406L53.4926 170.836L53.6896 170.486L54.5241 169.077C54.6433 168.876 54.6644 168.639 54.5926 168.411C54.5516 168.251 54.4434 168.122 54.268 168.023L52.5089 166.992L51.0785 169.406Z" fill="#71495A"/>
<path d="M52.435 172.574L53.4664 170.815L51.0522 169.385L49.6218 171.799L51.3808 172.83C51.5562 172.929 51.7473 172.955 51.9332 172.935C52.1399 172.889 52.3365 172.75 52.435 172.574Z" fill="#D8BFB4"/>
<path d="M49.6958 166.216L48.8614 167.625L48.6644 167.975L51.0786 169.406L52.509 166.992L50.75 165.96C50.5488 165.841 50.337 165.841 50.1304 165.887C49.9702 165.928 49.7943 166.041 49.6958 166.216Z" fill="#D8BFB4"/>
<path d="M51.0777 169.406L48.6636 167.975L47.6528 169.709L47.6321 169.734C47.5544 169.884 47.5024 170.054 47.5226 170.24C47.548 170.473 47.687 170.669 47.8882 170.789L49.6473 171.82L51.0777 169.406Z" fill="white"/>
<path d="M114.448 194.653C114.345 194.57 114.283 194.435 114.268 194.296C114.032 190.84 110.286 189.061 110.235 189.02C110.085 188.942 109.951 188.792 109.957 188.626C109.936 188.44 110.014 188.291 110.143 188.183L118.332 181.95C118.441 181.868 118.601 181.827 118.746 181.858C123.035 182.802 123.705 186.351 123.448 188.097C123.437 188.215 123.38 188.339 123.272 188.422L115.083 194.654C114.954 194.762 114.747 194.808 114.572 194.71C114.499 194.694 114.474 194.673 114.448 194.653ZM112.45 189.272C113.507 190.121 114.738 191.492 115.153 193.353L122.519 187.774C122.572 186.969 122.538 183.844 118.79 182.912L111.403 188.516C111.681 188.697 112.037 188.941 112.45 189.272Z" fill="#C59F6D"/>
<path d="M118.809 200.364C118.731 200.301 118.649 200.193 118.613 200.079C118.608 200.033 117.805 196.333 114.575 194.756C114.425 194.678 114.317 194.549 114.297 194.363C114.277 194.177 114.354 194.028 114.484 193.919L122.672 187.687C122.781 187.605 122.941 187.564 123.086 187.595C125.037 188.017 128.509 189.873 127.788 193.833C127.778 193.952 127.695 194.055 127.586 194.138L119.398 200.37C119.268 200.478 119.082 200.498 118.912 200.446C118.886 200.426 118.835 200.384 118.809 200.364ZM116.434 194.765C118.187 196.174 119.01 198.107 119.359 199.151L126.834 193.49C127.331 190.072 124.002 188.883 123.104 188.628L115.717 194.232C115.97 194.392 116.202 194.579 116.434 194.765Z" fill="#C59F6D"/>
</svg>
